<?xml version="1.0" encoding="UTF-8"?>
<svg width="20px" height="20px" viewBox="0 0 20 20" version="1.1" xmlns="http://www.w3.org/2000/svg" xmlns:xlink="http://www.w3.org/1999/xlink">
    <g id="控件" stroke="none" stroke-width="1" fill="none" fill-rule="evenodd">
        <g id="Header" transform="translate(-375.000000, -10.000000)">
            <g id="编组" transform="translate(375.000000, 10.000000)">
                <path d="M0,0 L20,0 L20,20 L0,20 L0,0 Z" id="矩形备份-3"></path>
                <path d="M18.4861111,6.81944444 L13.4305556,6.81944444 L13.4305556,1.76388889 C13.4305556,1.55 13.2555556,1.375 13.0416667,1.375 L1.76388889,1.375 C1.55,1.375 1.375,1.55 1.375,1.76388889 L1.375,13.0416667 C1.375,13.2555556 1.55,13.4305556 1.76388889,13.4305556 L6.81944444,13.4305556 L6.81944444,18.4861111 C6.81944444,18.7 6.99444444,18.875 7.20833333,18.875 L18.4861111,18.875 C18.7,18.875 18.875,18.7 18.875,18.4861111 L18.875,7.20833333 C18.875,6.99444444 18.7,6.81944444 18.4861111,6.81944444 Z M6.81944444,7.20833333 L6.81944444,11.7777778 L3.02777778,11.7777778 L3.02777778,3.02777778 L11.7777778,3.02777778 L11.7777778,6.81944444 L7.20833333,6.81944444 C6.99444444,6.81944444 6.81944444,6.99444444 6.81944444,7.20833333 Z M11.7777778,8.47222222 L11.7777778,11.7777778 L8.47222222,11.7777778 L8.47222222,8.47222222 L11.7777778,8.47222222 Z M17.2222222,17.2222222 L8.47222222,17.2222222 L8.47222222,13.4305556 L13.0416667,13.4305556 C13.2555556,13.4305556 13.4305556,13.2555556 13.4305556,13.0416667 L13.4305556,8.47222222 L17.2222222,8.47222222 L17.2222222,17.2222222 Z" id="形状" fill-opacity="0.65" fill="#000000" fill-rule="nonzero"></path>
            </g>
        </g>
    </g>
</svg>
