<?xml version="1.0" encoding="UTF-8"?>
<svg width="261px" height="200px" viewBox="0 0 261 200" version="1.1" xmlns="http://www.w3.org/2000/svg" xmlns:xlink="http://www.w3.org/1999/xlink">
    <title>引导图</title>
    <g id="页面-1" stroke="none" stroke-width="1" fill="none" fill-rule="evenodd">
        <g id="引导图">
            <rect id="矩形" fill="#C5DFFF" fill-rule="nonzero" x="0" y="0" width="261" height="200" rx="4"></rect>
            <g id="编组-18备份" transform="translate(38, 56)">
                <g id="path-1-link" fill="#FFFFFF">
                    <path d="M180.87223,2.07168062e-16 L5.1277704,2.07168062e-16 C3.34473292,2.07168062e-16 2.69816044,0.185651222 2.04630859,0.534265408 C1.39445674,0.882879593 0.882879593,1.39445674 0.534265408,2.04630859 C0.185651222,2.69816044 0,3.34473292 0,5.1277704 L0,126.87223 C0,128.655267 0.185651222,129.30184 0.534265408,129.953691 C0.882879593,130.605543 1.39445674,131.11712 2.04630859,131.465735 C2.69816044,131.814349 3.34473292,132 5.1277704,132 L180.87223,132 C182.655267,132 183.30184,131.814349 183.953691,131.465735 C184.605543,131.11712 185.11712,130.605543 185.465735,129.953691 C185.814349,129.30184 186,128.655267 186,126.87223 L186,5.1277704 C186,3.34473292 185.814349,2.69816044 185.465735,2.04630859 C185.11712,1.39445674 184.605543,0.882879593 183.953691,0.534265408 C183.30184,0.185651222 182.655267,2.07168062e-16 180.87223,2.07168062e-16 Z" id="path-1"></path>
                </g>
                <g id="编组-17" transform="translate(12, 64)" fill-rule="nonzero">
                    <rect id="矩形" fill-opacity="0.03" fill="#000000" x="0" y="0" width="162" height="28" rx="2"></rect>
                    <g id="Shape" transform="translate(9.875, 8.75)" fill="#1677FF">
                        <path d="M8.13984375,2.63203125 L5.61796875,0.11015625 C5.54765625,0.03984375 5.45273437,0 5.353125,0 L0.375,0 C0.167578125,0 0,0.167578125 0,0.375 L0,10.125 C0,10.3324219 0.167578125,10.5 0.375,10.5 L7.875,10.5 C8.08242187,10.5 8.25,10.3324219 8.25,10.125 L8.25,2.89804687 C8.25,2.7984375 8.21015625,2.70234375 8.13984375,2.63203125 Z M7.38515625,3.0703125 L5.1796875,3.0703125 L5.1796875,0.86484375 L7.38515625,3.0703125 Z M7.40625,9.65625 L0.84375,9.65625 L0.84375,0.84375 L4.3828125,0.84375 L4.3828125,3.375 C4.3828125,3.646875 4.603125,3.8671875 4.875,3.8671875 L7.40625,3.8671875 L7.40625,9.65625 Z M6.28125,6.4921875 L1.96875,6.4921875 C1.865625,6.4921875 1.78125,6.534375 1.78125,6.5859375 L1.78125,7.1484375 C1.78125,7.2 1.865625,7.2421875 1.96875,7.2421875 L6.28125,7.2421875 C6.384375,7.2421875 6.46875,7.2 6.46875,7.1484375 L6.46875,6.5859375 C6.46875,6.534375 6.384375,6.4921875 6.28125,6.4921875 Z M1.78125,4.9921875 L1.78125,5.5546875 C1.78125,5.60625 1.8234375,5.6484375 1.875,5.6484375 L6.375,5.6484375 C6.4265625,5.6484375 6.46875,5.60625 6.46875,5.5546875 L6.46875,4.9921875 C6.46875,4.940625 6.4265625,4.8984375 6.375,4.8984375 L1.875,4.8984375 C1.8234375,4.8984375 1.78125,4.940625 1.78125,4.9921875 Z" id="path-3"></path>
                    </g>
                    <g id="输出表" transform="translate(28, 4.1716)" fill="#0068FA" font-family="PingFangSC-Regular, PingFang SC" font-size="12" font-weight="normal">
                        <text>
                            <tspan x="0" y="13">输出表</tspan>
                        </text>
                    </g>
                </g>
                <g id="编组-17" transform="translate(12, 96)" fill-rule="nonzero">
                    <rect id="矩形" fill-opacity="0.03" fill="#000000" x="0" y="0" width="162" height="28" rx="2"></rect>
                    <g id="编组-15" transform="translate(9.6485, 8.5156)" fill="#0068FA">
                        <g id="Icon/01-Line/1-example" transform="translate(0, -0)">
                            <path d="M4.35151065,0 C4.57156161,0 4.74994815,0.178386545 4.74994815,0.3984375 L4.749,1.359 L6.95307315,1.359375 C7.14561774,1.359375 7.30626301,1.4959522 7.34341582,1.67751345 L7.35151065,1.7578125 C7.35151065,1.97786346 7.17312411,2.15625 6.95307315,2.15625 L6.511,2.156 L6.51121821,3.609375 L8.65251901,9.15157599 C8.80180103,9.53795373 8.60959698,9.97219176 8.22321924,10.1214738 C8.13699533,10.1547875 8.04535598,10.171875 7.95292024,10.171875 L0.750000002,10.171875 C0.335786442,10.171875 0,9.83608856 0,9.421875 C0,9.32943926 0.017087506,9.2377999 0.050401224,9.15157599 L2.19170203,3.609375 L2.191,2.156 L1.74994815,2.15625 C1.55740356,2.15625 1.39675829,2.0196728 1.35960548,1.83811155 L1.35151065,1.7578125 C1.35151065,1.53776154 1.52989719,1.359375 1.74994815,1.359375 L3.953,1.359 L3.95307315,0.3984375 C3.95307315,0.205892914 4.08965035,0.0452476427 4.2712116,0.00809483388 L4.35151065,0 Z M6.03059726,7.21951075 C5.50254866,7.21951075 5.00383667,7.40415953 4.60670491,7.73636209 C4.06975721,8.18578727 3.38991433,8.4375 2.67242404,8.4375 C2.19065839,8.4375 1.72522487,8.32410825 1.30703135,8.11170779 L0.818354402,9.375 L7.88456143,9.375 L7.174,7.538 L7.13217484,7.51174028 C6.80035556,7.32155858 6.42345702,7.21951075 6.03059726,7.21951075 Z M3.953,2.156 L2.98857315,2.15625 L2.98857703,3.75796406 L1.59630826,7.362006 C1.92189055,7.54295255 2.28957835,7.63986425 2.67242404,7.63986425 C3.20047264,7.63986425 3.69918463,7.45521547 4.09630826,7.12301291 C4.63326409,6.67358773 5.31310697,6.421875 6.03059726,6.421875 C6.28683101,6.421875 6.53844474,6.45395117 6.78078826,6.51593953 L5.71434321,3.75796406 L5.71434268,2.15625 L4.749,2.156 L4.74994815,5.6015625 C4.74994815,5.79410709 4.61337095,5.95475236 4.4318097,5.99190517 L4.35151065,6 C4.13145969,6 3.95307315,5.82161346 3.95307315,5.6015625 L3.953,2.156 Z" id="形状结合"></path>
                        </g>
                    </g>
                    <g id="模型" transform="translate(28, 4)" fill="#0068FA" font-family="PingFangSC-Regular, PingFang SC" font-size="12" font-weight="normal">
                        <text>
                            <tspan x="0" y="13">模型</tspan>
                        </text>
                    </g>
                </g>
                <g id="执行结果：" transform="translate(12, 40)" fill="#000000" fill-opacity="0.65" fill-rule="nonzero" font-family="PingFangSC-Regular, PingFang SC" font-size="12" font-weight="normal">
                    <text>
                        <tspan x="0" y="13">执行结果：</tspan>
                    </text>
                </g>
                <g id="编组-14" transform="translate(12, 8)" fill="#DEE9F2" fill-rule="nonzero">
                    <rect id="矩形" x="0" y="0" width="106" height="10" rx="2"></rect>
                    <rect id="矩形备份" x="0" y="14" width="106" height="10" rx="2"></rect>
                </g>
            </g>
            <g id="组件-normal备份-16" transform="translate(40, 12.5)">
                <g id="Rectangle" transform="translate(0, 3.5)">
                    <g id="path-5-link" fill="#000000" fill-rule="nonzero">
                        <path d="M4,0 L176,0 C178.209139,0 180,1.790861 180,4 L180,32 C180,34.209139 178.209139,36 176,36 L4,36 C1.790861,36 0,34.209139 0,32 L0,4 C0,1.790861 1.790861,0 4,0 Z" id="path-5"></path>
                    </g>
                    <path d="M176,0.5 C176.966498,0.5 177.841498,0.891750844 178.474874,1.52512627 C179.108249,2.15850169 179.5,3.03350169 179.5,4 L179.5,32 C179.5,32.9664983 179.108249,33.8414983 178.474874,34.4748737 C177.841498,35.1082492 176.966498,35.5 176,35.5 L4,35.5 C3.03350169,35.5 2.15850169,35.1082492 1.52512627,34.4748737 C0.891750844,33.8414983 0.5,32.9664983 0.5,32 L0.5,4 C0.5,3.03350169 0.891750844,2.15850169 1.52512627,1.52512627 C2.15850169,0.891750844 3.03350169,0.5 4,0.5 L176,0.5 Z" id="路径" stroke="#C2C8D5" fill="#FFFFFF"></path>
                </g>
                <g id="zujian-zhuangtai-null" transform="translate(156, 13.5)" fill="#23B65F" fill-rule="nonzero">
                    <rect id="矩形" opacity="0" x="0" y="0" width="16" height="16"></rect>
                    <path d="M10.921875,5.515625 L10.1890625,5.515625 C10.0296875,5.515625 9.878125,5.5921875 9.784375,5.7234375 L7.328125,9.1296875 L6.215625,7.5859375 C6.121875,7.45625 5.971875,7.378125 5.8109375,7.378125 L5.078125,7.378125 C4.9765625,7.378125 4.9171875,7.49375 4.9765625,7.5765625 L6.9234375,10.2765625 C7.121875,10.553125 7.5328125,10.553125 7.73125,10.2765625 L11.021875,5.7140625 C11.0828125,5.63125 11.0234375,5.515625 10.921875,5.515625 Z" id="路径"></path>
                    <path d="M8,1 C4.134375,1 1,4.134375 1,8 C1,11.865625 4.134375,15 8,15 C11.865625,15 15,11.865625 15,8 C15,4.134375 11.865625,1 8,1 Z M8,13.8125 C4.790625,13.8125 2.1875,11.209375 2.1875,8 C2.1875,4.790625 4.790625,2.1875 8,2.1875 C11.209375,2.1875 13.8125,4.790625 13.8125,8 C13.8125,11.209375 11.209375,13.8125 8,13.8125 Z" id="形状"></path>
                </g>
                <g id="读虚拟宽表" transform="translate(36, 12.5)" fill="#000000" fill-opacity="0.65" fill-rule="nonzero" font-family="PingFangSC-Regular, PingFang SC" font-size="12" font-weight="normal">
                    <text id="可查看的组件">
                        <tspan x="0" y="13">可查看的组件</tspan>
                    </text>
                </g>
                <g id="zujian-bian-lan备份-2" transform="translate(0, 3.5)" fill="#23B65F" fill-rule="nonzero">
                    <path d="M4,0 L4,0 L4,0 L4,36 C1.790861,36 0,34.209139 0,32 L0,4 C0,1.790861 1.790861,0 4,0 Z" id="矩形备份"></path>
                </g>
                <g id="zujian_icon_shujuchuli" transform="translate(12, 13.5)" fill-rule="nonzero">
                    <rect id="Rectangle" fill="#000000" opacity="0" x="0" y="0" width="16" height="16"></rect>
                    <path d="M13.9090909,1 L2.09090909,1 C1.7640625,1 1.5,1.2234375 1.5,1.5 L1.5,5 L14.5,5 L14.5,1.5 C14.5,1.2234375 14.2359375,1 13.9090909,1 Z M4.5,3.625 C4.1546875,3.625 3.875,3.3453125 3.875,3 C3.875,2.6546875 4.1546875,2.375 4.5,2.375 C4.8453125,2.375 5.125,2.6546875 5.125,3 C5.125,3.3453125 4.8453125,3.625 4.5,3.625 Z M1.5,14.5 C1.5,14.7765625 1.7640625,15 2.09090909,15 L13.9090909,15 C14.2359375,15 14.5,14.7765625 14.5,14.5 L14.5,11 L1.5,11 L1.5,14.5 Z M4.5,12.375 C4.8453125,12.375 5.125,12.6546875 5.125,13 C5.125,13.3453125 4.8453125,13.625 4.5,13.625 C4.1546875,13.625 3.875,13.3453125 3.875,13 C3.875,12.6546875 4.1546875,12.375 4.5,12.375 Z M1.5,10 L14.5,10 L14.5,6 L1.5,6 L1.5,10 Z M4.5,7.375 C4.8453125,7.375 5.125,7.6546875 5.125,8 C5.125,8.3453125 4.8453125,8.625 4.5,8.625 C4.1546875,8.625 3.875,8.3453125 3.875,8 C3.875,7.6546875 4.1546875,7.375 4.5,7.375 Z" id="Shape" fill="#9FAABE"></path>
                </g>
                <g id="jiedian-normal" transform="translate(86.5, 0)" fill="#FFFFFF" fill-rule="nonzero" stroke="#9FAABE">
                    <circle id="椭圆形备份-21" cx="3.5" cy="3.5" r="3.5"></circle>
                </g>
                <g id="jiedian-normal备份" transform="translate(52.5, 36)" fill="#FFFFFF" fill-rule="nonzero" stroke="#9FAABE">
                    <circle id="椭圆形备份-21" cx="3.5" cy="3.5" r="3.5"></circle>
                </g>
                <g id="jiedian-normal备份-2" transform="translate(120.5, 36)" fill="#FFFFFF" fill-rule="nonzero" stroke="#9FAABE">
                    <circle id="椭圆形备份-21" cx="3.5" cy="3.5" r="3.5"></circle>
                </g>
            </g>
        </g>
    </g>
</svg>