<svg width="12px" height="12px" viewBox="0 0 12 12" version="1.1" xmlns="http://www.w3.org/2000/svg"
    xmlns:xlink="http://www.w3.org/1999/xlink">
    <path
        d="M3.828125,10.28125 L4.921875,10.28125 C4.98203125,10.28125 5.03125,10.2320313 5.03125,10.171875 L5.03125,3.828125 C5.03125,3.76796875 4.98203125,3.71875 4.921875,3.71875 L3.828125,3.71875 C3.76796875,3.71875 3.71875,3.76796875 3.71875,3.828125 L3.71875,10.171875 C3.71875,10.2320313 3.76796875,10.28125 3.828125,10.28125 Z M6.453125,6.453125 L7.546875,6.453125 C7.60703125,6.453125 7.65625,6.40390625 7.65625,6.34375 L7.65625,3.828125 C7.65625,3.76796875 7.60703125,3.71875 7.546875,3.71875 L6.453125,3.71875 C6.39296875,3.71875 6.34375,3.76796875 6.34375,3.828125 L6.34375,6.34375 C6.34375,6.40390625 6.39296875,6.453125 6.453125,6.453125 Z M9.078125,7.4375 L10.171875,7.4375 C10.2320313,7.4375 10.28125,7.38828125 10.28125,7.328125 L10.28125,3.828125 C10.28125,3.76796875 10.2320313,3.71875 10.171875,3.71875 L9.078125,3.71875 C9.01796875,3.71875 8.96875,3.76796875 8.96875,3.828125 L8.96875,7.328125 C8.96875,7.38828125 9.01796875,7.4375 9.078125,7.4375 Z M12.03125,1.53125 L1.96875,1.53125 C1.72675781,1.53125 1.53125,1.72675781 1.53125,1.96875 L1.53125,12.03125 C1.53125,12.2732422 1.72675781,12.46875 1.96875,12.46875 L12.03125,12.46875 C12.2732422,12.46875 12.46875,12.2732422 12.46875,12.03125 L12.46875,1.96875 C12.46875,1.72675781 12.2732422,1.53125 12.03125,1.53125 Z M11.484375,11.484375 L2.515625,11.484375 L2.515625,2.515625 L11.484375,2.515625 L11.484375,11.484375 Z"
        id="Shape"
        transform="translate(7.000000, 7.000000) scale(1, -1) rotate(-90.000000) translate(-7.000000, -7.000000) ">
    </path>
</svg>
