<?xml version="1.0" encoding="UTF-8"?>
<svg width="20px" height="20px" viewBox="0 0 20 20" version="1.1" xmlns="http://www.w3.org/2000/svg" xmlns:xlink="http://www.w3.org/1999/xlink">
    <g id="控件" stroke="none" stroke-width="1" fill="none" fill-rule="evenodd">
        <g id="Header" transform="translate(-483.000000, -10.000000)">
            <g id="编组" transform="translate(483.000000, 10.000000)">
                <path d="M0,0 L20,0 L20,20 L0,20 L0,0 Z" id="矩形备份-5"></path>
                <g id="删-除-(1)" transform="translate(1.000000, 1.000000)" fill="#000000" fill-rule="nonzero">
                    <rect id="矩形" fill-opacity="0.449999988" opacity="0" x="0" y="0" width="18" height="18"></rect>
                    <path d="M14.0291016,15.3386719 C14.0291016,15.9416016 13.5386719,16.4320312 12.9375,16.4320312 L5.06425781,16.4320312 C4.46132812,16.4302734 3.97265625,15.9416016 3.97089844,15.3386719 L3.97089844,3.740625 L14.0291016,3.740625 L14.0291016,15.3386719 L14.0291016,15.3386719 Z M6.15585937,1.77890625 C6.15585937,1.65234375 6.25429687,1.55390625 6.38085937,1.55390625 L11.6332031,1.55390625 C11.7597656,1.55390625 11.8564453,1.65234375 11.8564453,1.77890625 L11.8564453,2.43808594 L6.15585937,2.43808594 L6.15585937,1.77890625 L6.15585937,1.77890625 Z M17.3056641,2.43808594 L13.1607422,2.43808594 L13.1607422,1.77890625 C13.1607422,0.938671875 12.4751953,0.251367187 11.6332031,0.251367187 L6.38085937,0.251367187 C5.53886719,0.253125 4.85507812,0.93515625 4.85332031,1.77890625 L4.85332031,2.43808594 L0.694335937,2.43808594 C0.328710937,2.43808594 0.03515625,2.73164062 0.03515625,3.09550781 C0.03515625,3.459375 0.328710937,3.7546875 0.694335937,3.7546875 L2.65429687,3.7546875 L2.65429687,15.3386719 C2.65429687,16.6693359 3.73359375,17.7486328 5.06425781,17.7486328 L12.9357422,17.7486328 C14.2664062,17.7486328 15.3457031,16.6693359 15.3457031,15.3386719 L15.3457031,3.740625 L17.3074219,3.740625 C17.6712891,3.740625 17.9666016,3.44707031 17.9666016,3.08144531 C17.9666016,2.71582031 17.6712891,2.43808594 17.3056641,2.43808594 Z M9,14.45625 C9.36386719,14.45625 9.65917969,14.1626953 9.65917969,13.7970703 L9.65917969,6.79394531 C9.65917969,6.43007812 9.365625,6.13476562 9,6.13476562 C8.63613281,6.13476562 8.34082031,6.42832031 8.34082031,6.79394531 L8.34082031,13.7970703 C8.34082031,14.1609375 8.63613281,14.45625 9,14.45625 M5.93261719,14.45625 C6.29648437,14.45625 6.59179687,14.1626953 6.59179687,13.7970703 L6.59179687,6.79394531 C6.59179687,6.43007812 6.29824219,6.13476562 5.93261719,6.13476562 C5.56875,6.13476562 5.2734375,6.42832031 5.2734375,6.79394531 L5.2734375,13.7970703 C5.2875,14.1609375 5.5828125,14.45625 5.93261719,14.45625 M12.0673828,14.45625 C12.43125,14.45625 12.7265625,14.1626953 12.7265625,13.7970703 L12.7265625,6.79394531 C12.7265625,6.43007812 12.4330078,6.13476562 12.0673828,6.13476562 C11.7035156,6.13476562 11.4082031,6.42832031 11.4082031,6.79394531 L11.4082031,13.7970703 C11.4099609,14.1609375 11.7035156,14.45625 12.0673828,14.45625" id="形状" fill-opacity="0.65"></path>
                </g>
            </g>
        </g>
    </g>
</svg>
