<?xml version="1.0" encoding="UTF-8"?>
<svg width="32px" height="32px" viewBox="0 0 32 32" version="1.1" xmlns="http://www.w3.org/2000/svg" xmlns:xlink="http://www.w3.org/1999/xlink">
    <title>可用实例</title>
    <g id="9月" stroke="none" stroke-width="1" fill="none" fill-rule="evenodd">
        <g id="我的节点" transform="translate(-80, -377)">
            <g id="编组-3" transform="translate(32, 94)">
                <g id="编组-8" transform="translate(0, 23.812)">
                    <g id="编组-7" transform="translate(24, 209.188)">
                        <g id="可用实例" transform="translate(24, 50)">
                            <rect id="矩形" stroke="#CDFADF" fill="#ECFFF4" x="0.5" y="0.5" width="31" height="31" rx="15.5"></rect>
                            <g id="ICON" transform="translate(10.5, 9)" fill="#23B65F">
                                <path d="M11,10 L11,13.5 C11,13.7761424 10.7761424,14 10.5,14 L0.5,14 C0.223857625,14 0,13.7761424 0,13.5 L0,10 L11,10 Z M9,11.375 C8.65482203,11.375 8.375,11.654822 8.375,12 C8.375,12.345178 8.65482203,12.625 9,12.625 C9.34517797,12.625 9.625,12.345178 9.625,12 C9.625,11.654822 9.34517797,11.375 9,11.375 Z M11,5 L11,9 L0,9 L0,5 L11,5 Z M4.5,6.5 L1.625,6.5 C1.55726696,6.5 1.50211652,6.55387247 1.50005948,6.62110657 L1.5,6.625 L1.5,7.375 C1.5,7.44273304 1.55387247,7.49788348 1.62110657,7.49994052 L1.625,7.5 L4.5,7.5 C4.56773304,7.5 4.62288348,7.44612753 4.62494052,7.37889343 L4.625,7.375 L4.625,6.625 C4.625,6.55726696 4.57112753,6.50211652 4.50389343,6.50005948 L4.5,6.5 Z M10.5,0 C10.7761424,0 11,0.223857625 11,0.5 L11,4 L0,4 L0,0.5 C0,0.223857625 0.223857625,0 0.5,0 L10.5,0 Z M4.5,1.5 L1.625,1.5 C1.55726696,1.5 1.50211652,1.55387247 1.50005948,1.62110657 L1.5,1.625 L1.5,2.375 C1.5,2.44273304 1.55387247,2.49788348 1.62110657,2.49994052 L1.625,2.5 L4.5,2.5 C4.56773304,2.5 4.62288348,2.44612753 4.62494052,2.37889343 L4.625,2.375 L4.625,1.625 C4.625,1.55726696 4.57112753,1.50211652 4.50389343,1.50005948 L4.5,1.5 Z" id="Shape"></path>
                            </g>
                        </g>
                    </g>
                </g>
            </g>
        </g>
    </g>
</svg>