<?xml version="1.0" encoding="UTF-8"?>
<svg width="1024px" height="1024px" viewBox="0 0 1024 1024" version="1.1" xmlns="http://www.w3.org/2000/svg" xmlns:xlink="http://www.w3.org/1999/xlink">
    <title>7 ICON/1 Line/save</title>
    <g id="7-ICON/1-Line/save" stroke="none" stroke-width="1" fill="none" fill-rule="evenodd" fill-opacity="0.45">
        <path d="M893.3,293.3 L730.7,130.7 C723.2,123.2 714,117.7 704,114.7 L704,112 L144,112 C126.3,112 112,126.3 112,144 L112,880 C112,897.7 126.3,912 144,912 L880,912 C897.7,912 912,897.7 912,880 L912,338.5 C912,321.5 905.3,305.3 893.3,293.3 Z M384,184 L640,184 L640,288 L384,288 L384,184 Z M840,840 L184,840 L184,184 L320,184 L320,320 C320,337.7 334.3,352 352,352 L672,352 C689.7,352 704,337.7 704,320 L704,205.8 L840,341.8 L840,840 Z M512,442 C432.5,442 368,506.5 368,586 C368,665.5 432.5,730 512,730 C591.5,730 656,665.5 656,586 C656,506.5 591.5,442 512,442 Z M512,666 C467.8,666 432,630.2 432,586 C432,541.8 467.8,506 512,506 C556.2,506 592,541.8 592,586 C592,630.2 556.2,666 512,666 Z" id="Shape" fill="#000000"></path>
    </g>
</svg>