<?xml version="1.0" encoding="UTF-8"?>
<svg width="14px" height="11.625px" viewBox="0 0 14 11.625" version="1.1" xmlns="http://www.w3.org/2000/svg" xmlns:xlink="http://www.w3.org/1999/xlink">
    <title>ICON</title>
    <g id="——-设计方案0515（定稿）" stroke="none" stroke-width="1" fill="none" fill-rule="evenodd" fill-opacity="0.85">
        <g id="节点中心-数据管理" transform="translate(-1095.000000, -22.187500)" fill="#000000">
            <g id="编组-34" transform="translate(1090.000000, 16.000000)">
                <g id="1-通用/2-图标占位-Placeholder/16px" transform="translate(4.000000, 4.000000)">
                    <g id="ICON" transform="translate(1.000000, 1.000000)">
                        <path d="M13.5,1.1875 C13.7761424,1.1875 14,1.41135763 14,1.6875 L14,9.4375 C14,9.71364237 13.7761424,9.9375 13.5,9.9375 L7.5625,9.9375 L7.5625,11.6875 L9.78125,11.6875 C9.91932119,11.6875 10.03125,11.7994288 10.03125,11.9375 L10.03125,12.6875 C10.03125,12.7565356 9.97528559,12.8125 9.90625,12.8125 L4.09375,12.8125 C4.02471441,12.8125 3.96875,12.7565356 3.96875,12.6875 L3.96875,11.9375 C3.96875,11.7994288 4.08067881,11.6875 4.21875,11.6875 L6.4375,11.6875 L6.4375,9.9375 L0.5,9.9375 C0.223857625,9.9375 0,9.71364237 0,9.4375 L0,1.6875 C0,1.41135763 0.223857625,1.1875 0.5,1.1875 L13.5,1.1875 Z M12.875,2.3125 L1.125,2.3125 L1.125,8.8125 L12.875,8.8125 L12.875,2.3125 Z M2.875,6.28125 L11.125,6.28125 C11.2630712,6.28125 11.375,6.39317881 11.375,6.53125 L11.375,7.15625 C11.375,7.29432119 11.2630712,7.40625 11.125,7.40625 L2.875,7.40625 C2.73692881,7.40625 2.625,7.29432119 2.625,7.15625 L2.625,6.53125 C2.625,6.39317881 2.73692881,6.28125 2.875,6.28125 Z M2.875,3.875 L6.90625,3.875 C7.04432119,3.875 7.15625,3.98692881 7.15625,4.125 L7.15625,4.75 C7.15625,4.88807119 7.04432119,5 6.90625,5 L2.875,5 C2.73692881,5 2.625,4.88807119 2.625,4.75 L2.625,4.125 C2.625,3.98692881 2.73692881,3.875 2.875,3.875 Z" id="Shape"></path>
                    </g>
                </g>
            </g>
        </g>
    </g>
</svg>