<?xml version="1.0" encoding="UTF-8"?>
<svg width="12.2226562px" height="12.0175781px" viewBox="0 0 12.2226562 12.0175781" version="1.1" xmlns="http://www.w3.org/2000/svg" xmlns:xlink="http://www.w3.org/1999/xlink">
    <title>1 通用/2 图标占位 Placeholder/16px</title>
    <g id="车险4月" stroke="none" stroke-width="1" fill="none" fill-rule="evenodd" fill-opacity="0.45">
        <g id="我的项目列表" transform="translate(-3555.902344, -218.998047)" fill="#000000">
            <g id="5.反馈/8.Drawer抽屉/亮色/默认备份-14" transform="translate(3507.000000, -1.000000)">
                <g id="编组-4" transform="translate(24.000000, 122.000000)">
                    <g id="编组-5备份-14" transform="translate(16.000000, 58.000000)">
                        <g id="ICON" transform="translate(8.875000, 39.875000)">
                            <path d="M8.3671875,0.123046875 C8.60881208,0.123046875 8.8046875,0.318922297 8.8046875,0.560546875 L8.80434375,3.62304688 L11.0058594,3.62304688 C11.247484,3.62304688 11.4433594,3.8189223 11.4433594,4.06054688 L11.4433438,11.1520469 L11.7578125,11.1522546 C12.0296402,11.1522546 12.25,11.3726144 12.25,11.6444421 C12.25,11.9162697 12.0296402,12.1366296 11.7578125,12.1366296 L11.0511496,12.1383092 C11.0362615,12.1398404 11.0211521,12.140625 11.0058594,12.140625 L1.12109375,12.140625 L1.07534375,12.1360469 L0.51953125,12.1366296 C0.2477036,12.1366296 0.02734375,11.9162697 0.02734375,11.6444421 C0.02734375,11.3726144 0.2477036,11.1522546 0.51953125,11.1522546 L0.68334375,11.1520469 L0.68359375,0.560546875 C0.68359375,0.318922297 0.879469172,0.123046875 1.12109375,0.123046875 L8.3671875,0.123046875 Z M10.4589844,4.60742188 L8.81835938,4.60742188 L8.81834375,11.1520469 L10.4583438,11.1520469 L10.4589844,4.60742188 Z M7.8203125,1.10742188 L1.66796875,1.10742188 L1.66734375,11.1520469 L7.81934375,11.1520469 L7.8203125,1.10742188 Z M6.34663799,7.56710188 C6.58826257,7.56710188 6.78413799,7.76297731 6.78413799,8.00460188 C6.78413799,8.24622646 6.58826257,8.44210188 6.34663799,8.44210188 L3.1016415,8.44210188 C2.86001692,8.44210188 2.6641415,8.24622646 2.6641415,8.00460188 C2.6641415,7.76297731 2.86001692,7.56710188 3.1016415,7.56710188 L6.34663799,7.56710188 Z M6.34663799,4.49061787 C6.58826257,4.49061787 6.78413799,4.68649329 6.78413799,4.92811787 C6.78413799,5.16974244 6.58826257,5.36561787 6.34663799,5.36561787 L3.1016415,5.36561787 C2.86001692,5.36561787 2.6641415,5.16974244 2.6641415,4.92811787 C2.6641415,4.68649329 2.86001692,4.49061787 3.1016415,4.49061787 L6.34663799,4.49061787 Z" id="形状结合"></path>
                        </g>
                    </g>
                </g>
            </g>
        </g>
    </g>
</svg>