<?xml version="1.0" standalone="no"?>
<!DOCTYPE svg PUBLIC "-//W3C//DTD SVG 1.1//EN" "http://www.w3.org/Graphics/SVG/1.1/DTD/svg11.dtd">
<svg t="1692235754526" class="icon" viewBox="0 0 1024 1024" version="1.1" xmlns="http://www.w3.org/2000/svg" p-id="2373"
  xmlns:xlink="http://www.w3.org/1999/xlink" width="200" height="200">
  <path
    d="M900 137c17.673 0 32 14.327 32 32v686c0 17.673-14.327 32-32 32H124c-17.673 0-32-14.327-32-32V169c0-17.673 14.327-32 32-32h776zM290.749 637.625H160V819h130.749V637.625z m191.251 0H350.749V819H482V637.625z m191.25 0H542V819h131.25V637.625z m190.75 0H733.25V819H864V637.625zM160 395.75v181.875h130.749l0.001-181.875H160zM864 205H160v130.75h704V205zM733.25 577.625H864V395.75H733.25v181.875zM542 395.75v181.875h131.25V395.75H542z m-191.25 0l-0.001 181.875H482V395.75H350.75z"
    fill="#000000" fill-opacity=".85" p-id="2374"></path>
</svg>
