<?xml version="1.0" encoding="UTF-8"?>
<svg width="12.25px" height="12.25px" viewBox="0 0 12.25 12.25" version="1.1"
    xmlns="http://www.w3.org/2000/svg" xmlns:xlink="http://www.w3.org/1999/xlink">
    <title>1 通用/2 图标占位 Placeholder/16px</title>
    <g id="9月" stroke="none" stroke-width="1" fill="#000000" fill-rule="evenodd" fill-opacity="0.85">
        <g id="数据管理" transform="translate(-24.875, -169.875)" fill="#000000">
            <g id="侧栏-默认备份" transform="translate(-0, 56)">
                <g id="L1" transform="translate(0, 100)">
                    <g id="ICON" transform="translate(24.875, 13.875)">
                        <path
                            d="M10.80625,10.0748047 C10.8089844,10.0707031 10.8130859,10.0666016 10.8158203,10.0625 C11.7113281,8.99746094 12.25,7.62480469 12.25,6.125 C12.25,4.62519531 11.7113281,3.25253906 10.8171875,2.1875 C10.8144531,2.18339844 10.8103516,2.18066406 10.8076172,2.1765625 C10.7925781,2.15878906 10.7789062,2.14238281 10.7638672,2.12597656 C10.7583984,2.11914063 10.7529297,2.11367188 10.7474609,2.10683594 C10.7283203,2.08496094 10.7105469,2.06445313 10.6914062,2.04257813 L10.6900391,2.04121094 C10.6695312,2.01796875 10.6476562,1.99472656 10.6271484,1.97148438 L10.6257812,1.97011719 C10.5820312,1.92363281 10.5382812,1.87714844 10.4931641,1.83203125 L10.4917969,1.83066406 L10.4261719,1.76503906 L10.4220703,1.7609375 C10.4015625,1.74042969 10.3810547,1.72128906 10.3605469,1.70214844 C10.3537109,1.6953125 10.346875,1.68847656 10.3386719,1.68164063 C10.325,1.66796875 10.3113281,1.65566406 10.2976562,1.64335937 C10.2935547,1.63925781 10.2880859,1.63515625 10.2839844,1.6296875 C9.19296875,0.61796875 7.73144531,0 6.125,0 C4.51855469,0 3.05703125,0.61796875 1.96464844,1.6296875 C1.96054687,1.63378906 1.95507812,1.63789063 1.95097656,1.64335937 C1.93730469,1.65566406 1.92363281,1.66933594 1.90996094,1.68300781 C1.903125,1.68984375 1.89628906,1.69667969 1.88808594,1.70351563 C1.86757812,1.72265625 1.84707031,1.74316406 1.8265625,1.76230469 L1.82246094,1.76640625 L1.75683594,1.83203125 L1.75546875,1.83339844 C1.71035156,1.87851563 1.66660156,1.925 1.62285156,1.97148438 L1.62148438,1.97285156 C1.59960938,1.99609375 1.57910156,2.01933594 1.55859375,2.04257813 L1.55722656,2.04394531 C1.53808594,2.06445313 1.51894531,2.08632813 1.50117188,2.10820313 C1.49570313,2.11503906 1.49023438,2.12050781 1.48476563,2.12734375 C1.46972656,2.14375 1.45605469,2.16152344 1.44101563,2.17792969 C1.43828125,2.18203125 1.43417969,2.18476563 1.43144531,2.18886719 C0.538671875,3.25253906 0,4.62519531 0,6.125 C0,7.62480469 0.538671875,8.99746094 1.4328125,10.0625 C1.43554688,10.0666016 1.43964844,10.0707031 1.44238281,10.0748047 C1.45605469,10.0912109 1.47109375,10.1089844 1.48476563,10.1253906 C1.49023438,10.1322266 1.49570313,10.1376953 1.50117187,10.1445313 C1.5203125,10.1664063 1.53808594,10.1869141 1.55722656,10.2087891 C1.55722656,10.2101563 1.55859375,10.2101563 1.55859375,10.2115234 C1.57910156,10.2347656 1.59960937,10.2580078 1.62148437,10.2798828 L1.62285156,10.28125 C1.66660156,10.3277344 1.71035156,10.3742188 1.75410156,10.4193359 L1.75546875,10.4207031 C1.77734375,10.4425781 1.79785156,10.4644531 1.81972656,10.4849609 L1.82382812,10.4890625 C1.86894531,10.5341797 1.91542969,10.5779297 1.96191406,10.6203125 C3.05703125,11.6320313 4.51855469,12.25 6.125,12.25 C7.73144531,12.25 9.19296875,11.6320313 10.2853516,10.6203125 C10.3318359,10.5779297 10.3769531,10.5341797 10.4220703,10.4890625 L10.4261719,10.4849609 C10.4480469,10.4630859 10.4699219,10.4425781 10.4904297,10.4207031 L10.4917969,10.4193359 C10.5369141,10.3742188 10.5806641,10.3277344 10.6230469,10.28125 L10.6244141,10.2798828 C10.6449219,10.2566406 10.6667969,10.2347656 10.6873047,10.2115234 C10.6873047,10.2101563 10.6886719,10.2101563 10.6886719,10.2087891 C10.7078125,10.1882813 10.7269531,10.1664063 10.7447266,10.1445313 C10.7501953,10.1376953 10.7556641,10.1322266 10.7611328,10.1253906 C10.7775391,10.1076172 10.7925781,10.0912109 10.80625,10.0748047 Z M10.8623047,8.12519531 C10.6736328,8.57089844 10.4248047,8.98378906 10.1212891,9.35839844 C9.78085937,9.06445312 9.40761719,8.80742188 9.00703125,8.59414063 C9.165625,7.95292969 9.2640625,7.24882813 9.29003906,6.5078125 L11.2519531,6.5078125 C11.2109375,7.06699219 11.0796875,7.60976563 10.8623047,8.12519531 Z M11.2519531,5.7421875 L9.29003906,5.7421875 C9.2640625,5.00117188 9.165625,4.29707031 9.00703125,3.65585937 C9.40761719,3.44257812 9.78085937,3.18554688 10.1212891,2.89160156 C10.4248047,3.26621094 10.6736328,3.67910156 10.8623047,4.12480469 C11.0796875,4.64023437 11.2109375,5.18300781 11.2519531,5.7421875 Z M8.12519531,1.38769531 C8.66796875,1.61738281 9.16152344,1.93457031 9.59628906,2.33378906 C9.34335937,2.54980469 9.07128906,2.73984375 8.78417969,2.90527344 C8.56953125,2.29003906 8.29472656,1.75546875 7.97480469,1.32753906 C8.02539062,1.34667969 8.07597656,1.3671875 8.12519531,1.38769531 Z M6.88652344,10.9662109 C6.76074219,11.0646484 6.63496094,11.1398438 6.5078125,11.1904297 L6.5078125,8.65429688 C7.05332031,8.69257812 7.58242187,8.81289062 8.08964844,9.0125 C7.97617187,9.34882813 7.84492187,9.65917969 7.69316406,9.93945312 C7.45527344,10.3824219 7.17636719,10.7365234 6.88652344,10.9662109 Z M7.69316406,2.31054688 C7.84355469,2.5921875 7.97617187,2.90253906 8.08964844,3.2375 C7.58242187,3.43710938 7.05332031,3.55742188 6.5078125,3.59570312 L6.5078125,1.0609375 C6.63359375,1.11152344 6.76074219,1.18535156 6.88652344,1.28515625 C7.17636719,1.51347656 7.45527344,1.86757812 7.69316406,2.31054688 Z M6.5078125,7.88730469 L6.5078125,6.5078125 L8.52441406,6.5078125 C8.50253906,7.11210938 8.42734375,7.69863281 8.3015625,8.25507812 L8.29746094,8.27148438 C7.73554688,8.05820313 7.13398438,7.92558594 6.5078125,7.88730469 L6.5078125,7.88730469 Z M6.5078125,5.7421875 L6.5078125,4.36269531 C7.13398437,4.32441406 7.73554687,4.19179688 8.29746094,3.97851562 L8.3015625,3.99492187 C8.42734375,4.55136719 8.50253906,5.13652344 8.52441406,5.7421875 L6.5078125,5.7421875 Z M5.7421875,6.5078125 L5.7421875,7.88730469 C5.11601562,7.92558594 4.51445313,8.05820313 3.95253906,8.27148438 L3.9484375,8.25507812 C3.82265625,7.69863281 3.74746094,7.11347656 3.72558594,6.5078125 L5.7421875,6.5078125 Z M3.72558594,5.7421875 C3.74746094,5.13789063 3.82265625,4.55136719 3.9484375,3.99492187 L3.95253906,3.97851562 C4.51445313,4.19179688 5.11464844,4.32441406 5.7421875,4.36269531 L5.7421875,5.7421875 L3.72558594,5.7421875 Z M5.7421875,8.65429688 L5.7421875,11.1890625 C5.61640625,11.1384766 5.48925781,11.0646484 5.36347656,10.9648438 C5.07363281,10.7365234 4.79335937,10.3810547 4.55546875,9.93808594 C4.40507812,9.65644531 4.27246094,9.34609375 4.15898437,9.01113281 C4.66757812,8.81152344 5.19667969,8.69257813 5.7421875,8.65429688 Z M5.7421875,3.59570312 C5.19667969,3.55742187 4.66757812,3.43710937 4.16035156,3.2375 C4.27382812,2.90117187 4.40507812,2.59082031 4.55683594,2.31054688 C4.79472656,1.86757812 5.07363281,1.51210937 5.36484375,1.28378906 C5.490625,1.18535156 5.61640625,1.11015625 5.74355469,1.05957031 L5.74355469,3.59570312 L5.7421875,3.59570312 Z M4.12480469,1.38769531 C4.17539063,1.3671875 4.22460938,1.34667969 4.27519531,1.32753906 C3.95527344,1.75546875 3.68046875,2.29003906 3.46582031,2.90527344 C3.17871094,2.74121094 2.90664063,2.54980469 2.65371094,2.33378906 C3.08847656,1.93457031 3.58203125,1.61738281 4.12480469,1.38769531 L4.12480469,1.38769531 Z M1.38769531,4.12480469 C1.57636719,3.67910156 1.82519531,3.26621094 2.12871094,2.89160156 C2.46914062,3.18554688 2.84238281,3.44257813 3.24296875,3.65585937 C3.084375,4.29707031 2.9859375,5.00117187 2.95996094,5.7421875 L0.998046875,5.7421875 C1.0390625,5.18300781 1.1703125,4.64023437 1.38769531,4.12480469 Z M0.998046875,6.5078125 L2.95996094,6.5078125 C2.9859375,7.24882813 3.084375,7.95292969 3.24296875,8.59414063 C2.84238281,8.80742188 2.46914062,9.06445312 2.12871094,9.35839844 C1.82519531,8.98378906 1.57636719,8.57089844 1.38769531,8.12519531 C1.1703125,7.60976563 1.0390625,7.06699219 0.998046875,6.5078125 Z M4.12480469,10.8623047 C3.58203125,10.6326172 3.08847656,10.3154297 2.65371094,9.91621094 C2.90664063,9.70019531 3.17871094,9.51015625 3.46582031,9.34472656 C3.68046875,9.95996094 3.95527344,10.4945313 4.27519531,10.9224609 C4.22460938,10.9033203 4.17402344,10.8828125 4.12480469,10.8623047 Z M8.12519531,10.8623047 C8.07460937,10.8828125 8.02539062,10.9033203 7.97480469,10.9224609 C8.29472656,10.4945313 8.56953125,9.95996094 8.78417969,9.34472656 C9.07128906,9.50878906 9.34335937,9.70019531 9.59628906,9.91621094 C9.16152344,10.3154297 8.66796875,10.6326172 8.12519531,10.8623047 Z"
                            id="Shape"></path>
                    </g>
                </g>
            </g>
        </g>
    </g>
</svg>
