<?xml version="1.0" encoding="UTF-8"?>
<svg width="20px" height="20px" viewBox="0 0 20 20" version="1.1" xmlns="http://www.w3.org/2000/svg" xmlns:xlink="http://www.w3.org/1999/xlink">
    <g id="控件" stroke="none" stroke-width="1" fill="none" fill-rule="evenodd">
        <g id="Header" transform="translate(-239.000000, -10.000000)">
            <g id="编组" transform="translate(239.000000, 10.000000)">
                <path d="M0,0 L20,0 L20,20 L0,20 L0,0 Z" id="矩形"></path>
                <path d="M10,2.59833334 L3.53,5.83333334 L10,9.06833334 L16.47,5.83333334 L10,2.59833334 Z M10.3725,0.92166666 L18.7058333,5.08833334 C18.9882201,5.22946924 19.16661,5.51805774 19.16661,5.83375 C19.16661,6.14944226 18.9882201,6.43803076 18.7058333,6.57916666 L10.3725,10.7458333 C10.1380531,10.8632805 9.86194693,10.8632805 9.6275,10.7458333 L1.29416666,6.57916666 C1.01177994,6.43803076 0.833389971,6.14944226 0.833389971,5.83375 C0.833389971,5.51805774 1.01177994,5.22946924 1.29416666,5.08833334 L9.6275,0.92166666 C9.86194693,0.804219544 10.1380531,0.804219544 10.3725,0.92166666 Z M17.9608333,9.255 C18.3725156,9.04904383 18.8732105,9.21581777 19.0791667,9.62750002 C19.2851228,10.0391823 19.1183489,10.5398771 18.7066667,10.7458333 L10.3733333,14.9125 C10.1388864,15.0299471 9.86278027,15.0299471 9.62833334,14.9125 L1.295,10.7458333 C1.02868827,10.612603 0.853683606,10.3474176 0.835908562,10.0501697 C0.818133518,9.75292183 0.96028855,9.4687706 1.20882523,9.30475303 C1.45736191,9.14073545 1.77452161,9.12176971 2.04083334,9.255 L10,13.235 L17.9608333,9.255 L17.9608333,9.255 Z M17.9608333,13.4216667 C18.2271451,13.2884364 18.5443048,13.3074021 18.7928414,13.4714197 C19.0413781,13.6354373 19.1835331,13.9195885 19.1657581,14.2168364 C19.1479831,14.5140842 18.9729784,14.7792697 18.7066667,14.9125 L10.3733333,19.0791667 C10.1388864,19.1966138 9.86278027,19.1966138 9.62833334,19.0791667 L1.295,14.9125 C0.883317741,14.7065438 0.71654381,14.2058489 0.9225,13.7941667 C1.12845619,13.3824844 1.62915108,13.2157105 2.04083334,13.4216667 L10,17.4016667 L17.9608333,13.4216667 Z" id="形状" fill-opacity="0.65" fill="#000000" fill-rule="nonzero"></path>
            </g>
        </g>
    </g>
</svg>
