<?xml version="1.0" encoding="UTF-8"?>
<svg width="74.3964503px" height="9.01201392px" viewBox="0 0 74.3964503 9.01201392" version="1.1" xmlns="http://www.w3.org/2000/svg" xmlns:xlink="http://www.w3.org/1999/xlink">
    <title>日志把手默认</title>
    <g id="——-设计方案0515（定稿）" stroke="none" stroke-width="1" fill="none" fill-rule="evenodd">
        <g id="拖拽日志区域" transform="translate(-1276.735561, -628.500000)" fill-rule="nonzero">
            <g id="日志把手默认" transform="translate(1276.735561, 628.500000)">
                <path d="M10.193659,0.5 L63.4259378,0.5 C63.6660796,0.5 63.8982022,0.586416732 64.0798801,0.743455624 L73.0534081,8.5 L73.0534081,8.5 L1.26443949,8.5 L9.50973726,0.770444638 C9.69508132,0.596693828 9.9396083,0.5 10.193659,0.5 Z" id="矩形" fill="#F2F3F5"></path>
                <path d="M10.193659,0.5 L63.4259378,0.5 C63.6660796,0.5 63.8982022,0.586416732 64.0798801,0.743455624 L73.0534081,8.5 L1.26443949,8.5 L9.50973726,0.770444638 C9.69508132,0.596693828 9.9396083,0.5 10.193659,0.5 Z" id="矩形备份-3" fill="#F2F3F5"></path>
                <path d="M63.4259378,0 C63.7861505,0 64.1343344,0.129625102 64.4068513,0.365183435 L73.3803793,8.12172781 L74.3964503,9 L0,9 L0.92247861,8.13522232 L9.16777638,0.405666956 C9.44579247,0.14504074 9.81258295,0 10.193659,0 L63.4259378,0 Z M63.4259378,1 L10.193659,1 C10.0666337,1 9.94437017,1.04834691 9.85169814,1.13522232 L1.49537905,9.01201392 L72.7714138,9.01201392 L63.7529089,1.12172779 C63.6847797,1.06283821 63.6024629,1.02381112 63.5149077,1.00797817 L63.4259378,1 Z" id="矩形备份-3" fill="#1664FF"></path>
                <rect id="矩形" stroke="#CDCED0" x="23.2982269" y="6" width="28" height="1" rx="0.5"></rect>
            </g>
        </g>
    </g>
</svg>
