<svg xmlns="http://www.w3.org/2000/svg" xmlns:xlink="http://www.w3.org/1999/xlink" viewBox="0 0 521.48 141.12"><defs><style>.cls-1{fill:url(#未命名的渐变_38);}.cls-2{fill:#001982;}</style><linearGradient id="未命名的渐变_38" x1="15.02" y1="130.51" x2="467.9" y2="-130.96" gradientUnits="userSpaceOnUse"><stop offset="0" stop-color="#1650ff"/><stop offset="0.18" stop-color="#1661ff"/><stop offset="0.36" stop-color="#1677ff"/><stop offset="0.42" stop-color="#1681ff"/><stop offset="0.52" stop-color="#169bff"/><stop offset="0.65" stop-color="#16c5ff"/><stop offset="0.71" stop-color="#16deff"/><stop offset="1" stop-color="#16ffc9"/></linearGradient></defs><g id="图层_2" data-name="图层 2"><g id="图层_1-2" data-name="图层 1"><path class="cls-1" d="M303.66,27.17a.62.62,0,0,1,.6.75l-.5,2.24A11.05,11.05,0,0,1,293,38.78H267.76a.6.6,0,0,1-.59-.74l2.22-9.91a1.22,1.22,0,0,1,1.19-1ZM259.18,65.88V66H287a11,11,0,0,0,10.78-8.62l.5-2.24a.61.61,0,0,0-.59-.75H263.51c-4.21,0-6.76-3.42-5.67-7.63l7.09-27.46a10.54,10.54,0,0,1,9.6-7.64h70L330.71,65.19a.61.61,0,0,0,.59.76h9.83a1.22,1.22,0,0,0,1.18-.91l13.78-53.43h23.55A11,11,0,0,0,390.42,3l.5-2.23a.61.61,0,0,0-.6-.75H277.53c-10.61,0-21.48,8.63-24.21,19.25l-7.09,27.46C243.61,56.86,249.38,65.19,259.18,65.88ZM50.92,21.74a.6.6,0,0,0,.59.77h9.87a1.23,1.23,0,0,0,1.18-.91l.63-2.35C66,8.63,59.69,0,49.07,0H32.38C21.76,0,10.83,8.63,8,19.25l-.08.29C5.09,30.15,11.42,38.78,22,38.78h16.7c4.22,0,6.73,3.43,5.6,7.64l-.07.29a10.68,10.68,0,0,1-9.68,7.63H17.88c-4.21,0-6.72-3.42-5.6-7.63L13,44.22a.61.61,0,0,0-.59-.77H2.48a1.22,1.22,0,0,0-1.18.9L.67,46.71C-2.16,57.32,4.18,66,14.79,66h16.7C42.1,66,53,57.32,55.87,46.71l.07-.29c2.83-10.61-3.5-19.25-14.11-19.25H28.19c-4.21,0-9.78-3.42-8.66-7.63l.08-.29a10.68,10.68,0,0,1,9.67-7.64H46c4.21,0,6.72,3.43,5.6,7.64Zm63.3,35.44,1.65-2L124,45.25,134,33l12.82-15.7L148,15.85l.87-1.07a9.45,9.45,0,0,1,6.3-2.67h15.1c4,0,6.45,3.26,5.45,7.26L175,22.2a.61.61,0,0,0,.59.75H186a1.22,1.22,0,0,0,1.17-.92l.66-2.66C190.5,8.69,184,0,173.31,0h-15.1c-7.73,0-15.78,4.54-20.64,11.59l-7.43,9.09L120.12,33,109.43,46.06l-3.17,3.87a9.67,9.67,0,0,1-7.42,3.92H80.11c-4,0-6.44-3.26-5.45-7.27l2-7.85H101a10.94,10.94,0,0,0,10.68-8.55l.5-2.22a.61.61,0,0,0-.59-.73H79.51l1.42-5.66c1.41-5.57,7.5-9.46,12.65-9.46h34.54a.64.64,0,0,0,.62-.77L128.21,9A11.5,11.5,0,0,0,117,0H93.58A20.59,20.59,0,0,0,89,.53a23.65,23.65,0,0,0-3.27,1c-.43.16-.84.33-1.26.52a25.48,25.48,0,0,0-3.22,1.71A26.58,26.58,0,0,0,69.37,19.37L62.56,46.58C59.89,57.27,66.41,66,77.09,66H95.82C102.43,66,109.3,62.64,114.22,57.18ZM170.76,43a1.22,1.22,0,0,0-1.18.92l-.66,2.66a9.94,9.94,0,0,1-9.08,7.27H144.13c-3,0-4.64-1.55-5.6-4.52L135,39a.61.61,0,0,0-1-.19l-8.21,10.06A1.21,1.21,0,0,0,125.5,50l1.36,4.28C128.15,61.39,133.93,66,141.71,66h15.1c10.68,0,21.55-8.68,24.22-19.37l.7-2.82a.61.61,0,0,0-.59-.76Zm64.16,23h-10a.62.62,0,0,1-.6-.77L228,50.88c.95-3.69.36-6.17-1.87-7.79C223.54,41.18,219.59,41,218,41H201.58a1.23,1.23,0,0,0-1.2.93l-6,23.13a1.22,1.22,0,0,1-1.19.92h-10a.62.62,0,0,1-.6-.77L199.2.93A1.23,1.23,0,0,1,200.39,0h32.2c5.47,0,10.06,2.13,12.94,6s3.67,9,2.26,14.49a28,28,0,0,1-10.25,14.87l-.12.08c2.55,3.05,4.3,7.89,2.35,15.44L236.12,65A1.23,1.23,0,0,1,234.92,66ZM236,20.49a7.16,7.16,0,0,0-1-6.18,6.62,6.62,0,0,0-5.51-2.56H208.64a.62.62,0,0,0-.6.47l-4.19,16.22a.63.63,0,0,0,.6.78h20.61C229.87,29.22,234.79,25.3,236,20.49Z"/><path class="cls-2" d="M454,83h9a5.9,5.9,0,0,0,5.75-4.59l.52-2.3a.72.72,0,0,0-.71-.88H455.45a.73.73,0,0,0-.71.56l-1.43,6.33A.72.72,0,0,0,454,83Zm-58.2,27c-.85-4.25-2-6.13-4.77-11.94l5.76-8a56.24,56.24,0,0,0,3.9-6.21,23.52,23.52,0,0,0,2.41-6.07,2.06,2.06,0,0,0-2-2.52H382.33a.72.72,0,0,0-.7.56l-14.49,64.45a.72.72,0,0,0,.7.88h2.28a5.72,5.72,0,0,0,5.58-4.47l11.94-53.11a.72.72,0,0,1,.7-.56h3.75a.36.36,0,0,1,.32.52l-7.08,14.58a1.42,1.42,0,0,0,0,1.24l.5,1.06c2.78,5.94,3,10.15,3,11.29,0,2.48-.86,3.44-2.55,4.91-1.1,1-3.09,1.09-4.06,1.1a.71.71,0,0,0-.69.56l-1.42,6.31a.72.72,0,0,0,.71.88c1.87,0,6.21-.42,9.3-2.85C392.35,120.78,397.06,116.25,395.81,110Zm41.38-21.39h-.85l5.15-11a.72.72,0,0,0-.65-1H418.23a.36.36,0,0,1-.33-.52l1.39-2.81a.36.36,0,0,0-.32-.52h-7a.72.72,0,0,0-.64.4l-5,10.17a.72.72,0,0,0,.65,1h22.85a.36.36,0,0,1,.33.51l-1.77,3.79H403.58a.72.72,0,0,0-.7.56l-1.42,6.32a.71.71,0,0,0,.71.87h32.17l-.56,2.5h-30.2a.72.72,0,0,0-.7.56l-1.42,6.32a.72.72,0,0,0,.7.88H432l-.32,1.44a1.34,1.34,0,0,1-1.31,1.05H399a.74.74,0,0,0-.71.57L396.85,116a.72.72,0,0,0,.71.88h33.28a8.82,8.82,0,0,0,8.14-6.65l3.36-15C443.17,91.6,440.86,88.62,437.19,88.62Zm-17.1,38.79-.88,3.91a2.59,2.59,0,0,1-2.55,2H406.58a.84.84,0,0,1-.83-1l2.6-11.59a.72.72,0,0,0-.7-.88h-6.28a.71.71,0,0,0-.7.56l-3,13.34c-.91,4.06,1.64,7.36,5.7,7.36h14a9.75,9.75,0,0,0,9-7.36l1.43-6.35Zm17.4-4h-2.78a5.6,5.6,0,0,0-5.25,4.16c-.93,3.65-1.49,7.87-2.65,12.06a.72.72,0,0,0,.69.92h3.05a5.13,5.13,0,0,0,5-4.12c.79-3.95,2-9.66,2.6-12.12A.71.71,0,0,0,437.49,123.37Zm-39.79,0h-3.18a4.86,4.86,0,0,0-4.61,3.33c-1.07,3.2-3.32,9-5.09,12.79a.72.72,0,0,0,.65,1h4a4.8,4.8,0,0,0,4.41-2.87,105.31,105.31,0,0,0,4.56-13.37A.72.72,0,0,0,397.7,123.37Zm17.49,3.78a5.81,5.81,0,0,0,5.68-4.58l.39-1.84a.71.71,0,0,0-.7-.87h-8.39a.72.72,0,0,0-.7.57l-1.26,5.85a.71.71,0,0,0,.7.87ZM521.46,76.1l-.38,1.7A6.65,6.65,0,0,1,514.59,83H493.71l-2.61,5.8h18.18c4,0,6.58,3.29,5.67,7.33l-1.87,8.29h4.69l-.67,3a6.16,6.16,0,0,1-6,4.8H466.79a.72.72,0,0,1-.7-.88l1.42-6.32a.73.73,0,0,1,.71-.56h7.91l3.54-7.87H474a.71.71,0,0,1-.7-.87l1.42-6.32a.73.73,0,0,1,.71-.56h7.71l2.61-5.8H474.35a.72.72,0,0,1-.7-.88l1.42-6.31a.74.74,0,0,1,.71-.57h45A.72.72,0,0,1,521.46,76.1ZM487.61,96.53l-3.54,7.87h21.25l1.78-7.87Zm-12.43,19.19h36.7l-4.27,18.86a8.39,8.39,0,0,1-8.18,6.54H462.68l4.25-18.81A8.47,8.47,0,0,1,475.18,115.72Zm.17,7.75a1.16,1.16,0,0,0-1.13.91l-2,9h27.44a.63.63,0,0,0,.62-.51l2.13-9.39Zm-10.58-1.68a.72.72,0,0,0-1.14-.73c-2.65,2-7.91,6-9.43,7.27,1.43-1.54,2-3,3.17-6.72l7-23.92,0-.11,2-6.86a.72.72,0,0,0-.69-.92H452.08a.73.73,0,0,0-.7.56L450,96.7a.72.72,0,0,0,.7.88h5.47a.36.36,0,0,1,.35.46l-8.46,29a15.29,15.29,0,0,1-3.74,7.74l2.91,5.3a1.9,1.9,0,0,0,2.79.61L462,131.64a2.17,2.17,0,0,0,.81-1.26ZM290.21,94.06l-7.33,28.18c-2.7,10.41-13.38,18.88-23.79,18.88h-19c-10.41,0-16.68-8.47-14-18.88l7.32-28.18c2.7-10.42,13.38-18.89,23.79-18.89h19C286.65,75.17,292.92,83.64,290.21,94.06Zm-17-7.34h-19A10.17,10.17,0,0,0,245,94.06l-7.32,28.18c-1.05,4,1.38,7.33,5.42,7.33h19a10.17,10.17,0,0,0,9.23-7.33l7.33-28.18C279.7,90,277.27,86.72,273.23,86.72Zm91.88-11.55h-9.83a1.22,1.22,0,0,0-1.18.91l-12.05,46.36a9.88,9.88,0,0,1-9,7.13h-.4c-3.92,0-6.29-3.2-5.27-7.13L339.7,75.17H328.14l-.23.91h0l-12.05,46.36a9.88,9.88,0,0,1-9,7.13h-.39c-3.93,0-6.29-3.2-5.27-7.13L313.3,75.93a.61.61,0,0,0-.58-.76h-9.83a1.22,1.22,0,0,0-1.18.91l-12,46.36c-2.68,10.3,3.53,18.68,13.83,18.68h.39a23.9,23.9,0,0,0,14.25-5.2,14.26,14.26,0,0,0,11.55,5.2h.39c10.3,0,20.86-8.38,23.54-18.68l12.08-46.51A.61.61,0,0,0,365.11,75.17ZM221.58,138.22a17.54,17.54,0,0,1-3.35-7.66,1.21,1.21,0,0,0-1.19-1H185.35c-4.19,0-6.74-3.41-5.68-7.6L191.45,75.6a.6.6,0,0,0-.59-.75H181a1.22,1.22,0,0,0-1.18.91L168.12,122c-2.68,10.56,3.73,19.15,14.29,19.15h40.41a.61.61,0,0,0,.42-1.05A18.37,18.37,0,0,1,221.58,138.22Zm-55.31-36h-38l2.33-9a11.16,11.16,0,0,1,2.91-4.82,7.37,7.37,0,0,1,4.62-1.7h24.4a11,11,0,0,0,10.73-8.58l.5-2.23a.61.61,0,0,0-.6-.74H139.34a19.9,19.9,0,0,0-12.19,4.56,21.06,21.06,0,0,0-7.42,11l-12.9,49.63a.61.61,0,0,0,.59.76h9.83a1.21,1.21,0,0,0,1.17-.91l6.88-26.44h30.34a11,11,0,0,0,10.73-8.58l.5-2.23A.61.61,0,0,0,166.27,102.22Z"/></g></g></svg>