<?xml version="1.0" encoding="UTF-8"?>
<svg width="14px" height="15px" viewBox="0 0 14 15" version="1.1" xmlns="http://www.w3.org/2000/svg" xmlns:xlink="http://www.w3.org/1999/xlink">
    <title>产品模型</title>
    <g id="——-设计方案0515（定稿）" stroke="none" stroke-width="1" fill="none" fill-rule="evenodd">
        <g id="查看记录与结果---查看记录" transform="translate(-581.000000, -73.000000)" fill="#9254DE" fill-rule="nonzero">
            <g id="编组-14" transform="translate(570.000000, 66.000000)">
                <g id="产品模型" transform="translate(11.000000, 7.930090)">
                    <rect id="矩形" opacity="0" x="0" y="0" width="14" height="14"></rect>
                    <path d="M1.18286328,3.34824219 L6.74501953,0.136896484 C6.89971826,0.0475811336 7.09031495,0.0475811336 7.24501367,0.136896484 L12.8072109,3.34821484 C12.9619095,3.43753336 13.0572012,3.60259832 13.0572012,3.78123047 L13.0572012,10.2038945 C13.0572012,10.3825169 12.961901,10.5475692 12.8072109,10.6368828 L7.24502734,13.8482422 C7.09032862,13.9375575 6.89973193,13.9375575 6.7450332,13.8482422 L1.18284961,10.6369102 C1.02815001,10.5475976 0.932845703,10.3825383 0.932845703,10.2039082 L0.932845703,3.78123047 C0.932845703,3.60260527 1.02815424,3.43755235 1.18284961,3.34824219 L1.18286328,3.34824219 Z M1.99668164,4.03461133 C1.9580046,4.05694478 1.9341875,4.09821688 1.9341875,4.14287891 L1.9341875,9.84227344 C1.9341875,9.88693058 1.95800883,9.92819633 1.99668164,9.95052734 L6.9325293,12.8002383 C6.97120504,12.8225677 7.01885551,12.8225677 7.05753125,12.8002383 L11.9933516,9.95054102 C12.0320296,9.92821348 12.0558594,9.88694707 12.0558594,9.84228711 L12.0558594,4.14287891 C12.0558594,4.09821199 12.0320465,4.05693355 11.9933652,4.03459766 L7.05753125,1.18494141 C7.01885551,1.16261196 6.97120504,1.16261196 6.9325293,1.18494141 L1.99668164,4.03461133 Z M6.9898418,6.47914258 L10.8396914,4.2564375 C11.0788262,4.11837891 11.384625,4.20031445 11.5226973,4.43944922 C11.6607695,4.67859766 11.578834,4.98439648 11.3396855,5.12246875 L7.49999414,7.33930859 L7.49999414,11.7343789 C7.49999414,12.0105098 7.27614453,12.234373 7,12.234373 C6.72385547,12.234373 6.50000586,12.0105098 6.50000586,11.7343789 L6.50000586,7.35103906 L2.65354688,5.13026172 C2.41441211,4.99218945 2.33244922,4.68639063 2.47053516,4.44725586 C2.60862109,4.20810742 2.91440625,4.1261582 3.15354102,4.26423047 L6.9898418,6.47912891 L6.9898418,6.47914258 Z" id="形状"></path>
                </g>
            </g>
        </g>
    </g>
</svg>