<?xml version="1.0" encoding="UTF-8"?>
<svg width="32px" height="32px" viewBox="0 0 32 32" version="1.1" xmlns="http://www.w3.org/2000/svg" xmlns:xlink="http://www.w3.org/1999/xlink">
    <title>不可用实例</title>
    <g id="页面-1" stroke="none" stroke-width="1" fill="none" fill-rule="evenodd">
        <g id="2.3-管理节点" transform="translate(-360.000000, -575.000000)">
            <g id="编组-7" transform="translate(256.000000, 525.000000)">
                <g id="编组-6" transform="translate(24.000000, 50.000000)">
                    <g id="不可用实例" transform="translate(80.000000, 0.000000)">
                        <rect id="矩形备份-5" stroke-opacity="0.15" stroke="#000000" x="0.5" y="0.5" width="31" height="31" rx="15.5"></rect>
                        <g id="1-通用/2-图标占位-Placeholder/20px备份-2" transform="translate(8.000000, 8.000000)" fill="#000A1A" fill-opacity="0.26">
                            <g id="Icon/01-Line/1-example">
                                <path d="M13.5,11 L13.5,14.5 C13.5,14.7761424 13.2761424,15 13,15 L3,15 C2.72385763,15 2.5,14.7761424 2.5,14.5 L2.5,11 L13.5,11 Z M11.5,12.375 C11.154822,12.375 10.875,12.654822 10.875,13 C10.875,13.345178 11.154822,13.625 11.5,13.625 C11.845178,13.625 12.125,13.345178 12.125,13 C12.125,12.654822 11.845178,12.375 11.5,12.375 Z M13.5,6 L13.5,10 L2.5,10 L2.5,6 L13.5,6 Z M7,7.5 L4.125,7.5 C4.05726696,7.5 4.00211652,7.55387247 4.00005948,7.62110657 L4,7.625 L4,8.375 C4,8.44273304 4.05387247,8.49788348 4.12110657,8.49994052 L4.125,8.5 L7,8.5 C7.06773304,8.5 7.12288348,8.44612753 7.12494052,8.37889343 L7.125,8.375 L7.125,7.625 C7.125,7.55726696 7.07112753,7.50211652 7.00389343,7.50005948 L7,7.5 Z M13,1 C13.2761424,1 13.5,1.22385763 13.5,1.5 L13.5,5 L2.5,5 L2.5,1.5 C2.5,1.22385763 2.72385763,1 3,1 L13,1 Z M7,2.5 L4.125,2.5 C4.05726696,2.5 4.00211652,2.55387247 4.00005948,2.62110657 L4,2.625 L4,3.375 C4,3.44273304 4.05387247,3.49788348 4.12110657,3.49994052 L4.125,3.5 L7,3.5 C7.06773304,3.5 7.12288348,3.44612753 7.12494052,3.37889343 L7.125,3.375 L7.125,2.625 C7.125,2.55726696 7.07112753,2.50211652 7.00389343,2.50005948 L7,2.5 Z" id="Shape"></path>
                            </g>
                        </g>
                    </g>
                </g>
            </g>
        </g>
    </g>
</svg>