<?xml version="1.0" encoding="UTF-8"?>
<svg width="8.25px" height="10.5px" viewBox="0 0 8.25 10.5" version="1.1" xmlns="http://www.w3.org/2000/svg" xmlns:xlink="http://www.w3.org/1999/xlink">
    <title>1 通用/2 图标占位 Placeholder/16px</title>
    <g id="控件" stroke="none" stroke-width="1" fill="none" fill-rule="evenodd">
        <g id="我的节点" transform="translate(-3.875000, -2.750000)" fill="#000000">
            <g id="Icon/01-Line/1-example" transform="translate(3.875000, 2.750000)">
                <path d="M8.25,7.5 L8.25,10.125 C8.25,10.3321068 8.08210678,10.5 7.875,10.5 L0.375,10.5 C0.167893219,10.5 0,10.3321068 0,10.125 L0,7.5 L8.25,7.5 Z M6.75,8.53125 C6.49111652,8.53125 6.28125,8.74111652 6.28125,9 C6.28125,9.25888348 6.49111652,9.46875 6.75,9.46875 C7.00888348,9.46875 7.21875,9.25888348 7.21875,9 C7.21875,8.74111652 7.00888348,8.53125 6.75,8.53125 Z M8.25,3.75 L8.25,6.75 L0,6.75 L0,3.75 L8.25,3.75 Z M3.375,4.875 L1.21875,4.875 C1.16795022,4.875 1.12658739,4.91540435 1.12504461,4.96582993 L1.125,4.96875 L1.125,5.53125 C1.125,5.58204978 1.16540435,5.62341261 1.21582993,5.62495539 L1.21875,5.625 L3.375,5.625 C3.42579978,5.625 3.46716261,5.58459565 3.46870539,5.53417007 L3.46875,5.53125 L3.46875,4.96875 C3.46875,4.91795022 3.42834565,4.87658739 3.37792007,4.87504461 L3.375,4.875 Z M7.875,0 C8.08210678,0 8.25,0.167893219 8.25,0.375 L8.25,3 L0,3 L0,0.375 C0,0.167893219 0.167893219,0 0.375,0 L7.875,0 Z M3.375,1.125 L1.21875,1.125 C1.16795022,1.125 1.12658739,1.16540435 1.12504461,1.21582993 L1.125,1.21875 L1.125,1.78125 C1.125,1.83204978 1.16540435,1.87341261 1.21582993,1.87495539 L1.21875,1.875 L3.375,1.875 C3.42579978,1.875 3.46716261,1.83459565 3.46870539,1.78417007 L3.46875,1.78125 L3.46875,1.21875 C3.46875,1.16795022 3.42834565,1.12658739 3.37792007,1.12504461 L3.375,1.125 Z" id="Shape"></path>
            </g>
        </g>
    </g>
</svg>