<?xml version="1.0" encoding="UTF-8"?>
<svg width="176px" height="130px" viewBox="0 0 176 130" version="1.1" xmlns="http://www.w3.org/2000/svg" xmlns:xlink="http://www.w3.org/1999/xlink">
    <title>模型训练</title>
    <g id="全部设计稿" stroke="none" stroke-width="1" fill="none" fill-rule="evenodd">
        <g id="新建项目" transform="translate(-84, -433)">
            <g id="5.反馈/8.Drawer抽屉/亮色/默认" transform="translate(48, 135.5)">
                <g id="编组-7备份" transform="translate(24, 286)">
                    <g id="模型训练" transform="translate(12, 12)">
                        <rect id="矩形" fill="#FFFFFF" x="0" y="0" width="176" height="129"></rect>
                        <g id="连线-normal备份" transform="translate(111, 49.5) scale(-1, 1) translate(-111, -49.5)translate(88, 39)" fill-rule="nonzero" stroke="#72ADFF">
                            <path d="M46,0 C46,0.638904785 46,0.958357178 46,0.958357178 C45.9559438,10.2718512 0,10.7281488 0,20.0770969 C0,20.0770969 0,20.3847313 0,21" id="路径-2备份-3" transform="translate(23, 10.5) scale(-1, -1) rotate(-180) translate(-23, -10.5)"></path>
                        </g>
                        <g id="连线-normal备份-16" transform="translate(42, 39)" fill-rule="nonzero" stroke="#72ADFF">
                            <path d="M46,0 C46,0.638904785 46,0.958357178 46,0.958357178 C45.9559438,10.2718512 0,10.7281488 0,20.0770969 C0,20.0770969 0,20.3847313 0,21" id="路径-2备份-3" transform="translate(23, 10.5) scale(-1, -1) rotate(-180) translate(-23, -10.5)"></path>
                        </g>
                        <g id="连线-normal备份-17" transform="translate(88, 70)" fill-rule="nonzero" stroke="#72ADFF">
                            <path d="M46,0 C46,0.638904785 46,0.958357178 46,0.958357178 C45.9559438,10.2718512 0,10.7281488 0,20.0770969 C0,20.0770969 0,20.3847313 0,21" id="路径-2备份-3" transform="translate(23, 10.5) scale(-1, -1) rotate(-180) translate(-23, -10.5)"></path>
                        </g>
                        <rect id="矩形" fill="#CCE1FF" x="63" y="27.5" width="50" height="12" rx="2"></rect>
                        <rect id="矩形备份-7" fill="#CCE1FF" x="17" y="58.5" width="50" height="12" rx="2"></rect>
                        <rect id="矩形备份-9" fill="#CCE1FF" x="109" y="58.5" width="50" height="12" rx="2"></rect>
                        <rect id="矩形备份-10" fill="#CCE1FF" x="63" y="89.5" width="50" height="12" rx="2"></rect>
                        <rect id="矩形" fill="#72ADFF" x="86" y="37.5" width="4" height="4" rx="2"></rect>
                        <rect id="矩形备份-16" fill="#72ADFF" x="40" y="56.5" width="4" height="4" rx="2"></rect>
                        <rect id="矩形备份-17" fill="#72ADFF" x="132" y="56.5" width="4" height="4" rx="2"></rect>
                        <rect id="矩形备份-18" fill="#72ADFF" x="132" y="68.5" width="4" height="4" rx="2"></rect>
                        <rect id="矩形备份-19" fill="#72ADFF" x="86" y="87.5" width="4" height="4" rx="2"></rect>
                    </g>
                </g>
            </g>
        </g>
    </g>
</svg>