<?xml version="1.0" encoding="UTF-8"?>
<svg width="20px" height="20px" viewBox="0 0 20 20" version="1.1" xmlns="http://www.w3.org/2000/svg" xmlns:xlink="http://www.w3.org/1999/xlink">
    <g id="控件" stroke="none" stroke-width="1" fill="none" fill-rule="evenodd">
        <g id="Header" transform="translate(-429.000000, -10.000000)">
            <g id="编组" transform="translate(429.000000, 10.000000)">
                <path d="M0,0 L20,0 L20,20 L0,20 L0,0 Z" id="矩形备份-4"></path>
                <path d="M15.6490408,4.5478941 L2.34904084,4.5478941 C1.96185334,4.5478941 1.64904084,4.8607066 1.64904084,5.2478941 L1.64904084,18.5478941 C1.64904084,18.9350816 1.96185334,19.2478941 2.34904084,19.2478941 L15.6490408,19.2478941 C16.0362283,19.2478941 16.3490408,18.9350816 16.3490408,18.5478941 L16.3490408,5.2478941 C16.3490408,4.8607066 16.0362283,4.5478941 15.6490408,4.5478941 Z M14.7740408,17.6728941 L3.22404084,17.6728941 L3.22404084,6.1228941 L14.7740408,6.1228941 L14.7740408,17.6728941 Z M18.4490408,1.7478941 L4.97404084,1.7478941 C4.87779084,1.7478941 4.79904084,1.8266441 4.79904084,1.9228941 L4.79904084,3.1478941 C4.79904084,3.2441441 4.87779084,3.3228941 4.97404084,3.3228941 L17.5740408,3.3228941 L17.5740408,15.9228941 C17.5740408,16.0191441 17.6527908,16.0978941 17.7490408,16.0978941 L18.9740408,16.0978941 C19.0702908,16.0978941 19.1490408,16.0191441 19.1490408,15.9228941 L19.1490408,2.4478941 C19.1490408,2.0607066 18.8362283,1.7478941 18.4490408,1.7478941 Z" id="Shape" fill-opacity="0.65" fill="#000000" fill-rule="nonzero"></path>
            </g>
        </g>
    </g>
</svg>
