<?xml version="1.0" encoding="UTF-8"?>
<svg width="16px" height="16px" viewBox="0 0 16 16" version="1.1" xmlns="http://www.w3.org/2000/svg" xmlns:xlink="http://www.w3.org/1999/xlink">
    <title>index-outlined</title>
    <g id="车险4月" stroke="none" stroke-width="1" fill="none" fill-rule="evenodd" opacity="0.85">
        <g id="我的项目列表" transform="translate(-4193.000000, -133.000000)" fill-rule="nonzero">
            <g id="5.反馈/8.Drawer抽屉/亮色/默认备份-15" transform="translate(4169.000000, -1.000000)">
                <g id="编组-11" transform="translate(24.000000, 122.000000)">
                    <g id="编组-3" transform="translate(0.000000, 10.000000)">
                        <g id="index-outlined" transform="translate(0.000000, 2.000000)">
                            <rect id="矩形" fill="#000000" opacity="0" x="0" y="0" width="16" height="16"></rect>
                            <path d="M13.1796875,11.521875 C12.9859375,10.346875 11.9421875,9.5046875 10.753125,9.5625 C9.5640625,9.6203125 8.6078125,10.5625 8.53125,11.75 C6.1328125,11.675 5.28125,11.1140625 5.4203125,9.9734375 C5.471875,9.546875 5.7296875,9.31875 6.203125,9.2078125 C6.490625,9.140625 6.809375,9.13125 7.0984375,9.1578125 C7.125,9.1609375 7.153125,9.1625 7.1796875,9.165625 C7.35625,9.2078125 7.5359375,9.24375 7.715625,9.271875 C8.2484375,9.359375 8.790625,9.403125 9.30625,9.375 C10.75625,9.296875 11.74375,8.6578125 11.79375,7.3015625 C11.8421875,5.9875 10.9390625,5.05625 9.4828125,4.4328125 C9.015625,4.2328125 8.5203125,4.078125 8.025,3.9609375 C7.8015625,3.9078125 7.6140625,3.871875 7.475,3.8484375 C7.3515625,2.6625 6.3578125,1.7578125 5.165625,1.74836379 C3.9734375,1.7390625 2.9640625,2.625 2.8203125,3.809375 C2.6765625,4.99375 3.4453125,6.0953125 4.6046875,6.3703125 C5.7640625,6.6453125 6.946875,6.00625 7.35,4.884375 C7.496875,4.9109375 7.6421875,4.940625 7.7875,4.975 C8.228125,5.078125 8.66875,5.215625 9.075,5.390625 C10.1796875,5.8625 10.7828125,6.4859375 10.7546875,7.2640625 C10.7296875,7.9609375 10.2296875,8.2828125 9.2515625,8.3359375 C8.821875,8.359375 8.3515625,8.321875 7.8875,8.2453125 C7.7578125,8.2234375 7.6390625,8.2015625 7.534375,8.178125 C7.4734375,8.165625 7.43125,8.1546875 7.4125,8.15 L7.3640625,8.140625 C7.3296875,8.1359375 7.271875,8.128125 7.196875,8.1203125 C6.80625,8.084375 6.3828125,8.096875 5.9703125,8.1921875 C5.1078125,8.39375 4.503125,8.9296875 4.390625,9.8453125 C4.1453125,11.8171875 5.61875,12.73125 8.703125,12.796875 C9.1578125,13.896875 10.365625,14.4828125 11.509375,14.15625 C12.6546875,13.8296875 13.3734375,12.696875 13.1796875,11.521875 Z M5.1421875,5.39375 C4.4234375,5.39375 3.840625,4.8109375 3.840625,4.0921875 C3.840625,3.3734375 4.4234375,2.790625 5.1421875,2.790625 C5.8609375,2.790625 6.44375,3.3734375 6.44375,4.0921875 C6.44375,4.8109375 5.8609375,5.39375 5.1421875,5.39375 Z M10.86875,13.203125 C10.15,13.203125 9.5671875,12.6203125 9.5671875,11.9015625 C9.5671875,11.1828125 10.15,10.6 10.86875,10.6 C11.5875,10.6 12.1703125,11.1828125 12.1703125,11.9015625 C12.1703125,12.6203125 11.5875,13.203125 10.86875,13.203125 Z" id="形状" fill="#333333"></path>
                        </g>
                    </g>
                </g>
            </g>
        </g>
    </g>
</svg>