<?xml version="1.0" standalone="no"?>
<!DOCTYPE svg PUBLIC "-//W3C//DTD SVG 1.1//EN" "http://www.w3.org/Graphics/SVG/1.1/DTD/svg11.dtd">
<svg t="1692237077415" class="icon" viewBox="0 0 1024 1024" version="1.1"
  xmlns="http://www.w3.org/2000/svg" p-id="2373" xmlns:xlink="http://www.w3.org/1999/xlink"
  width="200" height="200">
  <path
    d="M796.888 620.993c60.698 0.026 114.879 38.079 135.516 95.179 20.637 57.1 3.31 121.013-43.34 159.86-46.648 38.847-112.625 44.305-165.02 13.651a383.323 383.323 0 0 1-231.68 62.76 384.832 384.832 0 0 1-117.615-24.85l-10.126-4.061 26.572-63.913c32.985 13.728 68.277 21.78 104.791 23.696a314.459 314.459 0 0 0 177.473-43.563c-26.876-44.535-27.69-100.098-2.13-145.403 25.559-45.304 73.53-73.327 125.536-73.333l0.023-0.023zM303.15 244.413l37.529 58.144c-85.43 54.968-139.176 147.72-144.396 249.193a317.423 317.423 0 0 0 4.336 71.69c71.448-13.393 141.687 28.517 163.852 97.767 22.166 69.25-10.676 144.175-76.613 174.783-65.937 30.609-144.34 7.325-182.898-54.315-38.558-61.64-25.208-142.354 31.143-188.287a384.862 384.862 0 0 1-8.904-105.26c6.22-120.645 68.727-231.361 168.8-298.986l7.15-4.73z m493.737 445.8c-41.403 0-74.966 33.574-74.966 74.99 0 41.414 33.563 74.988 74.966 74.988 41.402 0 74.966-33.574 74.966-74.989 0-41.415-33.564-74.988-74.966-74.988z m-569.741 0c-41.403 0-74.966 33.574-74.966 74.99 0 41.414 33.563 74.988 74.966 74.988 41.402 0 74.966-33.574 74.966-74.989 0-41.415-33.564-74.988-74.966-74.988zM512.017 73c76.804 0 140.122 60.233 143.98 136.964 146.73 59.469 242.177 202.65 240.653 361.006l-0.161 8.122-69.154-2.169c3.896-127.477-69.117-244.827-185.177-297.624-30.736 64.45-103.998 96.695-172.265 75.818-68.268-20.877-110.982-88.586-100.436-159.211C380.002 125.28 440.63 73.01 512.017 73z m0 69.22a74.962 74.962 0 0 0-64.922 37.495 75.008 75.008 0 0 0 0 74.988 74.962 74.962 0 0 0 64.922 37.494c41.403 0 74.966-33.573 74.966-74.988s-33.563-74.989-74.966-74.989z"
    fill="#000000" fill-opacity=".85" p-id="2374"></path>
</svg>
