<?xml version="1.0" encoding="UTF-8"?>
<svg width="1024px" height="1024px" viewBox="0 0 1024 1024" version="1.1" xmlns="http://www.w3.org/2000/svg" xmlns:xlink="http://www.w3.org/1999/xlink">
    <title>7 ICON/1 Line/redo</title>
    <g id="7-ICON/1-Line/redo" stroke="none" stroke-width="1" fill="none" fill-rule="evenodd" fill-opacity="0.45">
        <path d="M751,280 L404,280 C264.824243,280 152,392.824243 152,532 C152,671.175757 264.824243,784 404,784 L558.271764,784 C560.480903,784 562.271764,785.790861 562.271764,788 L562.271764,868 C562.271764,870.209139 560.480903,872 558.271764,872 L404,872 C216.223185,872 64,719.776815 64,532 C64,344.223185 216.223185,192 404,192 L751,192 L751,98.3384951 C751,89.7444586 760.845862,84.870229 767.622883,90.2575354 L949.068049,233.91904 C954.31065,238.023655 954.31065,245.976345 949.068049,250.08096 L767.622883,393.742465 C760.97373,399.129771 751,394.255541 751,385.661505 L751,280 Z" id="Path" fill="#000000"></path>
    </g>
</svg>