<?xml version="1.0" encoding="UTF-8"?>
<svg width="8.625px" height="10.5px" viewBox="0 0 8.625 10.5" version="1.1" xmlns="http://www.w3.org/2000/svg" xmlns:xlink="http://www.w3.org/1999/xlink">
    <title>1 通用/2 图标占位 Placeholder/16px备份</title>
    <g id="——-设计方案0515（定稿）" stroke="none" stroke-width="1" fill="none" fill-rule="evenodd" fill-opacity="0.45">
        <g id="工作台-已有项目" transform="translate(-1299.500000, -278.468750)" fill="#000000">
            <g id="编组-16" transform="translate(1018.000000, 126.000000)">
                <g id="编组-15备份-4" transform="translate(20.000000, 58.000000)">
                    <g id="编组-12" transform="translate(260.000000, 89.000000)">
                        <g id="Icon/01-Line/1-example" transform="translate(1.500000, 5.468750)">
                            <path d="M1.5,3.75 L1.5,1.5 C1.5,1.29289322 1.66789322,1.125 1.875,1.125 L3.75,1.125 L3.75,0.09375 C3.75,0.0419733047 3.7919733,0 3.84375,0 L6.28125,0 C6.3330267,0 6.375,0.0419733047 6.375,0.09375 L6.375,1.125 L8.25,1.125 C8.45710678,1.125 8.625,1.29289322 8.625,1.5 L8.625,9 C8.625,9.20710678 8.45710678,9.375 8.25,9.375 L5.625,9.375 L5.625,10.125 C5.625,10.3321068 5.45710678,10.5 5.25,10.5 L0.375,10.5 C0.167893219,10.5 0,10.3321068 0,10.125 L0,4.125 C0,3.91789322 0.167893219,3.75 0.375,3.75 L1.5,3.75 Z M2.625,4.59375 L0.84375,4.59375 L0.84375,9.65625 L4.78125,9.65625 L4.78125,6.75 L3,6.75 C2.79289322,6.75 2.625,6.58210678 2.625,6.375 L2.625,4.59375 Z M2.34375,3.75 L3.21966991,3.75 C3.3191261,3.75 3.41450882,3.78950882 3.48483496,3.85983496 L5.51516504,5.89016504 C5.58549118,5.96049118 5.625,6.0558739 5.625,6.15533009 L5.625,8.53125 L7.78125,8.53125 L7.78125,1.96875 L6.9375,1.96875 L6.9375,2.484375 C6.9375,2.5361517 6.8955267,2.578125 6.84375,2.578125 L3.28125,2.578125 C3.2294733,2.578125 3.1875,2.5361517 3.1875,2.484375 L3.1875,1.96875 L2.34375,1.96875 L2.34375,3.75 Z M5.625,1.125 L5.625,0.75 L4.5,0.75 L4.5,1.125 L5.625,1.125 Z M4.43175731,6 L3.375,4.94324269 L3.375,6 L4.43175731,6 Z" id="Shape"></path>
                        </g>
                    </g>
                </g>
            </g>
        </g>
    </g>
</svg>