<?xml version="1.0" standalone="no"?>
<!DOCTYPE svg PUBLIC "-//W3C//DTD SVG 1.1//EN" "http://www.w3.org/Graphics/SVG/1.1/DTD/svg11.dtd">
<svg t="1692236839780" class="icon" viewBox="0 0 1024 1024" version="1.1"
  xmlns="http://www.w3.org/2000/svg" p-id="2673" xmlns:xlink="http://www.w3.org/1999/xlink"
  width="200" height="200">
  <path
    d="M934.308 202.667v633.347c0 17.673-14.327 32-32 32H160c-17.673 0-32-14.327-32-32V202.667c0-17.673 14.327-32 32-32h742.308c17.673 0 32 14.327 32 32z m-65.376 33.376H193.376v566.595h675.556V236.043zM440.604 606.927l-93.297 93.297a8.011 8.011 0 0 1-11.317 0.003l-34.923-34.891a7.996 7.996 0 0 1-0.203-11.11l0.196-0.202h0.003l58.391-58.411-58.391-58.411a8 8 0 0 1-0.194-11.111l0.196-0.202L335.97 491a8.008 8.008 0 0 1 11.316 0.001l93.317 93.3c6.163 6.16 6.25 16.096 0.26 22.363l-0.259 0.263z m317.232 40.27v49.376a8 8 0 0 1-8 8h-241.54a8 8 0 0 1-8-8v-49.376a8 8 0 0 1 8-8h241.54a8 8 0 0 1 8 8z m0-152.545v49.377a8 8 0 0 1-8 8h-241.54a8 8 0 0 1-8-8v-49.377a8 8 0 0 1 8-8h241.54a8 8 0 0 1 8 8z m2.135-152.544v49.376a8 8 0 0 1-8 8H310.337a8 8 0 0 1-8-8v-49.376a8 8 0 0 1 8-8H751.97a8 8 0 0 1 8 8z"
    fill="#000000" fill-opacity=".85" p-id="2674"></path>
</svg>
