<?xml version="1.0" encoding="UTF-8"?>
<svg width="14px" height="14px" viewBox="0 0 14 14" version="1.1" xmlns="http://www.w3.org/2000/svg" xmlns:xlink="http://www.w3.org/1999/xlink">
    <title>23规则</title>
    <g id="——-设计方案0515（定稿）" stroke="none" stroke-width="1" fill="none" fill-rule="evenodd">
        <g id="查看记录与结果---查看记录" transform="translate(-687.000000, -74.000000)" fill-rule="nonzero">
            <g id="编组-11" transform="translate(676.000000, 66.000000)">
                <g id="编组-24" transform="translate(11.000000, 7.000000)">
                    <g id="23规则" transform="translate(0.000000, 1.000000)">
                        <rect id="矩形" fill="#000000" opacity="0" x="0" y="0" width="14" height="14"></rect>
                        <path d="M12.25,2.625 L12.25,3.5 L5.25,3.5 L5.25,2.625 L12.25,2.625 Z M3.0625,4.375 C3.784375,4.375 4.375,3.784375 4.375,3.0625 C4.375,2.340625 3.784375,1.75 3.0625,1.75 C2.340625,1.75 1.75,2.340625 1.75,3.0625 C1.75,3.784375 2.340625,4.375 3.0625,4.375 Z M4.8125,6.5625 L1.75,6.5625 L1.75,7.4375 L4.8125,7.4375 L4.8125,6.5625 Z M9.1875,7.4375 L12.25,7.4375 L12.25,6.5625 L9.1875,6.5625 L9.1875,7.4375 Z M8.3125,7 C8.3125,6.278125 7.721875,5.6875 7,5.6875 C6.278125,5.6875 5.6875,6.278125 5.6875,7 C5.6875,7.721875 6.278125,8.3125 7,8.3125 C7.721875,8.3125 8.3125,7.721875 8.3125,7 Z M1.75,11.375 L8.75,11.375 L8.75,10.5 L1.75,10.5 L1.75,11.375 Z M10.9375,9.625 C10.215625,9.625 9.625,10.215625 9.625,10.9375 C9.625,11.659375 10.215625,12.25 10.9375,12.25 C11.659375,12.25 12.25,11.659375 12.25,10.9375 C12.25,10.215625 11.659375,9.625 10.9375,9.625 Z" id="形状" fill="#FAAD14"></path>
                    </g>
                </g>
            </g>
        </g>
    </g>
</svg>