<?xml version="1.0" encoding="UTF-8"?>
<svg width="20px" height="20px" viewBox="0 0 20 20" version="1.1" xmlns="http://www.w3.org/2000/svg" xmlns:xlink="http://www.w3.org/1999/xlink">
    <g id="控件" stroke="none" stroke-width="1" fill="none" fill-rule="evenodd">
        <g id="Header" transform="translate(-728.000000, -10.000000)">
            <g id="编组" transform="translate(728.000000, 10.000000)">
                <rect id="矩形" fill-opacity="0.449999988" fill="#000000" fill-rule="nonzero" opacity="0" x="1" y="1" width="18" height="18"></rect>
                <path d="M10,3 C13.8659932,3 17,6.13400675 17,10 C17,13.8659932 13.8659932,17 10,17 C6.13400675,17 3,13.8659932 3,10 C3,6.13400675 6.13400675,3 10,3 M10,1 C5.02943725,1 1,5.02943725 1,10 C1,14.9705627 5.02943725,19 10,19 C14.9705627,19 19,14.9705627 19,10 C19,7.61305159 18.0517884,5.32386638 16.363961,3.63603897 C14.6761336,1.94821156 12.3869484,1 10,1 Z" id="形状" fill-opacity="0.65" fill="#000000" fill-rule="nonzero"></path>
                <path d="M8.12928572,7.69044005 L12.1292857,10 L8.12928572,12.3095599 L8.12928572,7.69044005 M7.98142857,6.14285715 C7.35300743,6.14285715 6.8435466,6.65229315 6.8435466,7.28071428 L6.8435466,12.7064286 C6.8408815,13.1133112 7.05687784,13.4903028 7.40925495,13.6937508 C7.76163205,13.8971987 8.19611462,13.8957665 8.54714285,13.69 L13.2335714,10.9835714 C13.5838335,10.7798371 13.7993218,10.4052052 13.7993218,10 C13.7993218,9.59479484 13.5838335,9.22016293 13.2335714,9.01642857 L8.54714285,6.31 C8.37673128,6.20510178 8.18148595,6.14741566 7.98142857,6.14285715 L7.98142857,6.14285715 Z" id="形状" fill-opacity="0.65" fill="#000000" fill-rule="nonzero"></path>
                <path d="M0,0 L20,0 L20,20 L0,20 L0,0 Z" id="矩形备份-8"></path>
            </g>
        </g>
    </g>
</svg>
