<?xml version="1.0" encoding="UTF-8"?>
<svg width="18px" height="18px" viewBox="0 0 18 18" version="1.1" xmlns="http://www.w3.org/2000/svg" xmlns:xlink="http://www.w3.org/1999/xlink">
    <g id="控件" stroke="none" stroke-width="1" fill="none" fill-rule="evenodd" fill-opacity="0.65">
        <g id="Header" transform="translate(-620.000000, -11.000000)" fill="#000000" fill-rule="nonzero">
            <g id="编组-2" transform="translate(620.000000, 11.000000)">
                <path d="M9,0 C11.3869484,0 13.6761336,0.948211563 15.363961,2.63603897 C15.3642901,2.63636804 15.3646192,2.63669714 15.3649482,2.63702626 L13.9507309,4.05123613 C12.6839024,2.78390728 10.9334969,2 9,2 C5.13400675,2 2,5.13400675 2,9 C2,12.8659932 5.13400675,16 9,16 C10.9329966,16 12.6829966,15.2164983 13.9497475,13.9497475 L15.363961,15.363961 C13.7352814,16.9926407 11.4852814,18 9,18 C4.02943725,18 0,13.9705627 0,9 C0,4.02943725 4.02943725,0 9,0 Z" id="形状结合"></path>
                <polygon id="路径" points="9 9.86214852 14.8755308 9.86214852 13.1086699 12 15.3649482 12 18 9.00019767 15.3649482 6 13.1086699 6 14.8755308 8.07225361 9 8.07225361"></polygon>
            </g>
        </g>
    </g>
</svg>
