<?xml version="1.0" encoding="UTF-8"?>
<svg width="20px" height="20px" viewBox="0 0 20 20" version="1.1" xmlns="http://www.w3.org/2000/svg" xmlns:xlink="http://www.w3.org/1999/xlink">
    <g id="控件" stroke="none" stroke-width="1" fill="none" fill-rule="evenodd">
        <g id="Header" transform="translate(-321.000000, -10.000000)">
            <g id="编组" transform="translate(321.000000, 10.000000)">
                <path d="M0,0 L20,0 L20,20 L0,20 L0,0 Z" id="矩形备份-2"></path>
                <g id="框选-(1)" transform="translate(1.000000, 1.000000)" fill="#000000" fill-rule="nonzero">
                    <rect id="矩形" fill-opacity="0.449999988" opacity="0" x="0" y="0" width="18" height="18"></rect>
                    <path d="M4.5,16.5 L4.5,17.2499941 C4.5,17.6642109 4.16421094,18 3.74999414,18 L0.750005859,18 C0.335789061,18 0,17.6642109 0,17.2499941 L0,14.2500059 C0,13.8357891 0.335789061,13.5 0.750005859,13.5 L1.5,13.5 L1.5,4.5 L0.750005859,4.5 C0.335789061,4.5 0,4.16421094 0,3.74999414 L0,0.750005859 C0,0.335789061 0.335789061,0 0.750005859,0 L3.74999414,0 C4.16421094,0 4.5,0.335789061 4.5,0.750005859 L4.5,1.5 L13.5,1.5 L13.5,0.750005859 C13.5,0.335789061 13.8357891,0 14.2500059,0 L17.2499941,0 C17.6642109,0 18,0.335789061 18,0.750005859 L18,3.74999414 C18,4.16421094 17.6642109,4.5 17.2499941,4.5 L16.5,4.5 L16.5,13.5 L17.2499941,13.5 C17.4489081,13.5 17.639675,13.5790182 17.7803284,13.7196716 C17.9209818,13.860325 18,14.0510919 18,14.2500059 L18,17.2499941 C18,17.6642109 17.6642109,18 17.2499941,18 L14.2500059,18 C13.8357891,18 13.5,17.6642109 13.5,17.2499941 L13.5,16.5 L4.5,16.5 Z M4.50000586,14.9999941 L13.5000059,14.9999941 L13.5000059,14.2500059 C13.5000059,13.8357891 13.8357891,13.5000059 14.2500059,13.5000059 L14.9999941,13.5000059 L14.9999941,4.50000586 L14.2500059,4.50000586 C13.8357891,4.50000586 13.5000059,4.16421094 13.5000059,3.74999414 L13.5000059,3.00000586 L4.50000586,3.00000586 L4.50000586,3.74999414 C4.50000586,4.16421094 4.16421094,4.50000586 3.74999414,4.50000586 L3.00000586,4.50000586 L3.00000586,13.5000059 L3.74999414,13.5000059 C4.16421094,13.5000059 4.50000586,13.8357891 4.50000586,14.2500059 L4.50000586,14.9999941 Z M1.49999414,1.49999414 L1.49999414,3.00000586 L3.00000586,3.00000586 L3.00000586,1.49999414 L1.49999414,1.49999414 L1.49999414,1.49999414 Z M1.49999414,14.9999941 L1.49999414,16.5000059 L3.00000586,16.5000059 L3.00000586,14.9999941 L1.49999414,14.9999941 Z M14.9999941,1.49999414 L14.9999941,3.00000586 L16.5000059,3.00000586 L16.5000059,1.49999414 L14.9999941,1.49999414 L14.9999941,1.49999414 Z M14.9999941,14.9999941 L14.9999941,16.5000059 L16.5000059,16.5000059 L16.5000059,14.9999941 L14.9999941,14.9999941 L14.9999941,14.9999941 Z" id="形状" fill-opacity="0.65"></path>
                </g>
            </g>
        </g>
    </g>
</svg>
