<svg width="48px" height="49px" viewBox="0 0 48 49" version="1.1" xmlns="http://www.w3.org/2000/svg"
    xmlns:xlink="http://www.w3.org/1999/xlink">
    <g id="全部设计稿" stroke="none" stroke-width="1" fill="none" fill-rule="evenodd">
        <g id="联合建模项目" transform="translate(-2310.000000, -211.000000)">
            <g id="5.反馈/8.Drawer抽屉/亮色/默认备份-3" transform="translate(2006.000000, -0.500000)">
                <g id="编组-3" transform="translate(288.000000, 196.000000)">
                    <g id="二分类/违约率" transform="translate(16.000000, 16.000000)">
                        <rect id="Rectangle-Copy-2" fill="#E6F4FF" x="0" y="0" width="48" height="48" rx="6"></rect>
                        <g id="Icon/01-Line/1-example" transform="translate(12.000000, 12.000000)" fill="#1890FF">
                            <path
                                d="M18.84375,15 L21.28125,15 C21.4883568,15 21.65625,15.1678932 21.65625,15.375 L21.65625,22.125 C21.65625,22.3321068 21.4883568,22.5 21.28125,22.5 L14.53125,22.5 C14.3241432,22.5 14.15625,22.3321068 14.15625,22.125 L14.15625,15.375 C14.15625,15.1678932 14.3241432,15 14.53125,15 L17.15625,15 L17.15625,12.9375 L6.84375,12.9375 L6.84375,15 L9.46875,15 C9.67585678,15 9.84375,15.1678932 9.84375,15.375 L9.84375,22.125 C9.84375,22.3321068 9.67585678,22.5 9.46875,22.5 L2.71875,22.5 C2.51164322,22.5 2.34375,22.3321068 2.34375,22.125 L2.34375,15.375 C2.34375,15.1678932 2.51164322,15 2.71875,15 L5.15625,15 L5.15625,11.4375 C5.15625,11.3339466 5.24019661,11.25 5.34375,11.25 L11.15625,11.25 L11.15625,9 L8.625,9 C8.41789322,9 8.25,8.83210678 8.25,8.625 L8.25,1.875 C8.25,1.66789322 8.41789322,1.5 8.625,1.5 L15.375,1.5 C15.5821068,1.5 15.75,1.66789322 15.75,1.875 L15.75,8.625 C15.75,8.83210678 15.5821068,9 15.375,9 L12.84375,9 L12.84375,11.25 L18.65625,11.25 C18.7598034,11.25 18.84375,11.3339466 18.84375,11.4375 L18.84375,15 Z M10.03125,3.28125 L10.03125,7.21875 L13.96875,7.21875 L13.96875,3.28125 L10.03125,3.28125 Z M4.125,16.78125 L4.125,20.71875 L8.0625,20.71875 L8.0625,16.78125 L4.125,16.78125 Z M15.9375,16.78125 L15.9375,20.71875 L19.875,20.71875 L19.875,16.78125 L15.9375,16.78125 Z"
                                id="Shape"></path>
                        </g>
                    </g>
                </g>
            </g>
        </g>
    </g>
</svg>
