<?xml version="1.0" encoding="UTF-8"?>
<svg width="1024px" height="1024px" viewBox="0 0 1024 1024" version="1.1" xmlns="http://www.w3.org/2000/svg" xmlns:xlink="http://www.w3.org/1999/xlink">
    <title>7 ICON/1 Line/undo</title>
    <g id="7-ICON/1-Line/undo" stroke="none" stroke-width="1" fill="none" fill-rule="evenodd" fill-opacity="0.45">
        <path d="M266,192 L613,192 C800.776815,192 953,344.223185 953,532 C953,719.776815 800.776815,872 613,872 L458.728236,872 C456.519097,872 454.728236,870.209139 454.728236,868 L454.728236,788 C454.728236,785.790861 456.519097,784 458.728236,784 L613,784 C752.175757,784 865,671.175757 865,532 C865,392.824243 752.175757,280 613,280 L266,280 L266,385.661505 C266,394.255541 256.02627,399.129771 249.377117,393.742465 L67.9319513,250.08096 C62.6893496,245.976345 62.6893496,238.023655 67.9319513,233.91904 L249.377117,90.2575354 C256.154138,84.870229 266,89.7444586 266,98.3384951 L266,192 Z" id="Path" fill="#000000"></path>
    </g>
</svg>