<svg width="12px" height="12px" viewBox="0 0 12 12" version="1.1" xmlns="http://www.w3.org/2000/svg"
    xmlns:xlink="http://www.w3.org/1999/xlink">
    <path
        d="M6.34375,1.96875 C6.46456229,1.96875 6.5625,2.06668771 6.5625,2.1875 L6.5625,6.34375 C6.5625,6.46456229 6.46456229,6.5625 6.34375,6.5625 L2.1875,6.5625 C2.06668771,6.5625 1.96875,6.46456229 1.96875,6.34375 L1.96875,2.1875 C1.96875,2.06668771 2.06668771,1.96875 2.1875,1.96875 L6.34375,1.96875 Z M5.6328125,2.8984375 L2.8984375,2.8984375 L2.8984375,5.6328125 L5.6328125,5.6328125 L5.6328125,2.8984375 Z M11.8125,1.96875 C11.9333123,1.96875 12.03125,2.06668771 12.03125,2.1875 L12.03125,6.34375 C12.03125,6.46456229 11.9333123,6.5625 11.8125,6.5625 L7.65625,6.5625 C7.53543771,6.5625 7.4375,6.46456229 7.4375,6.34375 L7.4375,2.1875 C7.4375,2.06668771 7.53543771,1.96875 7.65625,1.96875 L11.8125,1.96875 Z M11.1015625,2.8984375 L8.3671875,2.8984375 L8.3671875,5.6328125 L11.1015625,5.6328125 L11.1015625,2.8984375 Z M6.34375,7.4375 C6.46456229,7.4375 6.5625,7.53543771 6.5625,7.65625 L6.5625,11.8125 C6.5625,11.9333123 6.46456229,12.03125 6.34375,12.03125 L2.1875,12.03125 C2.06668771,12.03125 1.96875,11.9333123 1.96875,11.8125 L1.96875,7.65625 C1.96875,7.53543771 2.06668771,7.4375 2.1875,7.4375 L6.34375,7.4375 Z M5.6328125,8.3671875 L2.8984375,8.3671875 L2.8984375,11.1015625 L5.6328125,11.1015625 L5.6328125,8.3671875 Z M11.8125,7.4375 C11.9333123,7.4375 12.03125,7.53543771 12.03125,7.65625 L12.03125,11.8125 C12.03125,11.9333123 11.9333123,12.03125 11.8125,12.03125 L7.65625,12.03125 C7.53543771,12.03125 7.4375,11.9333123 7.4375,11.8125 L7.4375,7.65625 C7.4375,7.53543771 7.53543771,7.4375 7.65625,7.4375 L11.8125,7.4375 Z M11.1015625,8.3671875 L8.3671875,8.3671875 L8.3671875,11.1015625 L11.1015625,11.1015625 L11.1015625,8.3671875 Z"
        id="形状结合"></path>
</svg>
