<?xml version="1.0" encoding="UTF-8"?>
<svg width="13.2592593px" height="13.2592593px" viewBox="0 0 13.2592593 13.2592593" version="1.1" xmlns="http://www.w3.org/2000/svg" xmlns:xlink="http://www.w3.org/1999/xlink">
    <title>Group</title>
    <g id="控件" stroke="none" stroke-width="1" fill="none" fill-rule="evenodd">
        <g id="小工具条" transform="translate(-161.4074, -11.3333)">
            <g id="Group" transform="translate(160, 10)">
                <rect id="Rectangle" x="0" y="0" width="16" height="16"></rect>
                <path d="M8.03703704,9.96436059 C6.93169565,9.96436059 6.03563941,9.06830435 6.03563941,7.96296296 C6.03563941,6.85762158 6.93169565,5.96156534 8.03703704,5.96156534 C9.14237842,5.96156534 10.0384347,6.85762158 10.0384347,7.96296296 C10.0384347,9.06830435 9.14237842,9.96436059 8.03703704,9.96436059 Z M4.37823201,4.33542977 L4.37823201,1.58350804 C4.37823201,1.44534036 4.49023904,1.33333333 4.62840671,1.33333333 L5.37893082,1.33333333 C5.51709849,1.33333333 5.62910552,1.44534036 5.62910552,1.58350804 L5.62910552,5.08595388 C5.62910552,5.36228922 5.40509146,5.58630328 5.12875611,5.58630328 L1.65758211,5.58630328 C1.51941444,5.58630328 1.40740741,5.47429625 1.40740741,5.33612858 L1.40740741,4.58560447 C1.40740741,4.4474368 1.51941444,4.33542977 1.65758211,4.33542977 L4.37823201,4.33542977 Z M11.6958421,4.33542977 L14.416492,4.33542977 C14.5546596,4.33542977 14.6666667,4.4474368 14.6666667,4.58560447 L14.6666667,5.33612858 C14.6666667,5.47429625 14.5546596,5.58630328 14.416492,5.58630328 L10.945318,5.58630328 C10.6689826,5.58630328 10.4449686,5.36228922 10.4449686,5.08595388 L10.4449686,1.58350804 C10.4449686,1.44534036 10.5569756,1.33333333 10.6951433,1.33333333 L11.4456674,1.33333333 C11.583835,1.33333333 11.6958421,1.44534036 11.6958421,1.58350804 L11.6958421,4.33542977 Z M11.6958421,11.5904962 L11.6958421,14.3424179 C11.6958421,14.4805856 11.583835,14.5925926 11.4456674,14.5925926 L10.6951433,14.5925926 C10.5569756,14.5925926 10.4449686,14.4805856 10.4449686,14.3424179 L10.4449686,10.839972 C10.4449686,10.5636367 10.6689826,10.3396226 10.945318,10.3396226 L14.416492,10.3396226 C14.5546596,10.3396226 14.6666667,10.4516297 14.6666667,10.5897973 L14.6666667,11.3403215 C14.6666667,11.4784891 14.5546596,11.5904962 14.416492,11.5904962 L11.6958421,11.5904962 Z M4.37823201,11.5904962 L1.65758211,11.5904962 C1.51941444,11.5904962 1.40740741,11.4784891 1.40740741,11.3403215 L1.40740741,10.5897973 C1.40740741,10.4516297 1.51941444,10.3396226 1.65758211,10.3396226 L5.12875611,10.3396226 C5.40509146,10.3396226 5.62910552,10.5636367 5.62910552,10.839972 L5.62910552,14.3424179 C5.62910552,14.4805856 5.51709849,14.5925926 5.37893082,14.5925926 L4.62840671,14.5925926 C4.49023904,14.5925926 4.37823201,14.4805856 4.37823201,14.3424179 L4.37823201,11.5904962 Z" id="Shape" fill-opacity="0.65" fill="#000000"></path>
            </g>
        </g>
    </g>
</svg>